<?xml version="1.0" encoding="UTF-8" standalone="no"?>
<svg id="svg2" xmlns:rdf="http://www.w3.org/1999/02/22-rdf-syntax-ns#" xmlns="http://www.w3.org/2000/svg" fill-rule="evenodd" height="402.28" width="490.06" version="1.1" xmlns:cc="http://creativecommons.org/ns#" xmlns:xlink="http://www.w3.org/1999/xlink" viewBox="0 0 392.04626 321.82684" xmlns:dc="http://purl.org/dc/elements/1.1/">
 <metadata id="metadata1224">
  <rdf:RDF>
   <cc:Work rdf:about="">
    <dc:format>image/svg+xml</dc:format>
    <dc:type rdf:resource="http://purl.org/dc/dcmitype/StillImage"/>
    <dc:title/>
   </cc:Work>
  </rdf:RDF>
 </metadata>
 <defs id="defs4">
  <linearGradient id="linearGradient7078">
   <stop id="stop7080" stop-color="#000" offset="0"/>
   <stop id="stop7082" stop-color="#808080" offset="1"/>
  </linearGradient>
  <linearGradient id="linearGradient6321">
   <stop id="stop6323" stop-color="#c0c0c0" offset="0"/>
   <stop id="stop6325" stop-color="#FFF" offset="1"/>
  </linearGradient>
  <linearGradient id="linearGradient6327" y2="587.62" xlink:href="#linearGradient6321" gradientUnits="userSpaceOnUse" x2="122.36" y1="587.62" x1="67.46"/>
  <linearGradient id="linearGradient7044" y2="599.48" xlink:href="#linearGradient6321" gradientUnits="userSpaceOnUse" x2="259.8" y1="599.48" x1="210.52"/>
  <linearGradient id="linearGradient7052" y2="613.91" xlink:href="#linearGradient6321" gradientUnits="userSpaceOnUse" x2="60.424" y1="613.91" x1="12.767"/>
  <linearGradient id="linearGradient7060" y2="609.36" xlink:href="#linearGradient6321" gradientUnits="userSpaceOnUse" x2="332.97" y1="609.36" x1="272.62"/>
  <linearGradient id="linearGradient7068" y2="607.38" xlink:href="#linearGradient6321" gradientUnits="userSpaceOnUse" x2="403.83" y1="607.38" x1="344.29"/>
  <linearGradient id="linearGradient7076" y2="593.48" xlink:href="#linearGradient6321" gradientUnits="userSpaceOnUse" x2="197.5" y1="593.48" x1="140.78"/>
  <linearGradient id="linearGradient7084" y2="753.04" xlink:href="#linearGradient7078" gradientUnits="userSpaceOnUse" x2="121.45" y1="753.04" x1="66.551"/>
  <linearGradient id="linearGradient7092" y2="779.33" xlink:href="#linearGradient7078" gradientUnits="userSpaceOnUse" x2="59.515" y1="779.33" x1="11.858"/>
  <linearGradient id="linearGradient7100" y2="758.91" xlink:href="#linearGradient7078" gradientUnits="userSpaceOnUse" x2="196.59" y1="758.91" x1="139.87"/>
  <linearGradient id="linearGradient7108" y2="764.91" xlink:href="#linearGradient7078" gradientUnits="userSpaceOnUse" x2="258.89" y1="764.91" x1="209.61"/>
  <linearGradient id="linearGradient7116" y2="774.78" xlink:href="#linearGradient7078" gradientUnits="userSpaceOnUse" x2="332.06" y1="774.78" x1="271.71"/>
  <linearGradient id="linearGradient7124" y2="772.8" xlink:href="#linearGradient7078" gradientUnits="userSpaceOnUse" x2="402.92" y1="772.8" x1="343.39"/>
 </defs>
 <g id="g6888" class="black queen" fill="url(#linearGradient7100)" transform="translate(-11.857696,-509.39117)">
  <path id="path25" d="M189.94,795.07c-5.52-10.13-10.79-19.05-12.28-42.26h-17.821c-1.493,23.205-6.63,31.827-12.233,42.259h42.339z"/>
  <path id="path34" d="m169.05,704.83c5.039,0,9.121-4.084,9.121-9.122,0-5.035-4.082-9.119-9.121-9.119-5.037,0-9.121,4.084-9.121,9.119,0,5.038,4.084,9.122,9.121,9.122z"/>
  <path id="path43" d="m195.97,831.22s-0.128-2.191-0.538-3.235c-0.408-1.047-1.821-2.21-1.821-2.21h-50.759s-1.405,1.026-1.878,2.133c-0.475,1.107-0.482,3.312-0.482,3.312h55.478z"/>
  <path id="path52" d="m193.29,825.01c2.238-2.864,3.534-6.324,3.26-10.648-0.28-4.448-2.738-9.32-5.282-13.064h-45.56c-2.205,3.403-5.475,7.821-5.795,12.212-0.319,4.391,1.023,8.636,3.26,11.5h50.117z"/>
  <path id="path61" d="m193.08,798.06c-0.427-1.705-1.99-2.078-2.544-2.078h-20.895-3.729-19.078c-0.554,0-2.117,0.373-2.543,2.078-0.37,1.363,1.051,2.457,1.635,2.48,0.347,0.004,15.49,0.002,21.85,0,6.361,0.002,23.321,0.004,23.668,0,0.584-0.023,2.004-1.117,1.636-2.48z"/>
  <path id="path70" d="m191.6,708.06c-1.591-2.273-3.977-2.216-5-1.932-1.022,0.284-3.01,1.932-5.34,1.932-2.022,0-3.976-0.852-5.602-1.91-0.228-0.186-0.448-0.36-0.659-0.516l-0.047,0.033-0.053-0.039c-0.116,0.085-0.23,0.194-0.341,0.317-1.672,1.175-3.684,2.342-5.823,2.342-2.345,0-4.491-1.373-6.251-2.659-1.759,1.286-4.016,2.432-6.361,2.432-2.329,0-4.317-1.648-5.34-1.932s-3.408-0.341-4.998,1.932c-2.206,3.148,0.053,5.768,1.704,6.931,5.15,3.622,11.706,15.31,10.872,28.371h-5.262c-0.388,0-3.382,1.181-3.68,4.463-0.256,2.627,2.638,4.27,3.047,4.316,0.24,0.005,10.82,0.003,15.262,0,4.444,0.003,16.291,0.005,16.533,0,0.408-0.046,3.137-1.462,2.88-4.088-0.299-3.283-3.126-4.691-3.514-4.691h-4.621l0.014-0.097c-0.795-13.023,5.738-24.662,10.876-28.274,1.649-1.163,3.909-3.783,1.704-6.931z"/>
 </g>
 <g id="g6912" class="black knight" fill="url(#linearGradient7124)" transform="translate(-11.857696,-509.39117)">
  <path id="path79" d="m350.32,793.8,37.333,0,2.115-16.877c-8.733-7.013-18.018-20.19-17.687-32.641,0.059-2.186,1.932-1.933,1.99-0.363,0.112,3.023,1.856,8.288,8.29,6.529,3.539-0.968,7.101-1.251,9.728-0.241,2.56,0.982,3.059,2.176,5.389,3.357,0,0,2.382-2.226,4.09-5.56,1.58-3.078,2.571-5.263-1.708-8.152-3.76-2.54-8.895-8.603-10.637-12.903-1.327-3.281-3.354-5.147-4.907-5.96,0.552-1.813,2.266-3.476-1.376-6.608-1.177,0.858-2.39,1.865-3.507,3.163-6.045-1.932-15.748-0.666-22.547,4.407-18.988,14.172-14.705,60.862-6.566,71.849z"/>
  <path id="path88" d="m393.06,831.22s-0.125-2.269-0.519-3.352c-0.397-1.083-1.763-2.29-1.763-2.29h-44.505s-1.359,1.065-1.818,2.211c-0.457,1.148-0.464,3.431-0.464,3.431h49.069z"/>
  <path id="path97" d="m390.47,824.72c2.164-2.968,3.416-6.55,3.154-11.028-0.274-4.61-2.65-9.652-5.108-13.532h-39.481c-2.131,3.525-5.292,8.102-5.599,12.649-0.312,4.549,0.987,8.943,3.148,11.911h43.886z"/>
  <path id="path106" d="m390.26,796.88c-0.41-1.764-1.922-2.15-2.458-2.15h-18.443-3.605-15.638c-0.535,0-2.045,0.386-2.458,2.15-0.356,1.413,1.016,2.544,1.58,2.57,0.336,0.003,12.17,0.002,18.32,0.002,6.147,0,20.787,0.001,21.121-0.002,0.565-0.026,1.938-1.157,1.581-2.57z"/>
 </g>
 <g id="g6904" class="black rook" fill="url(#linearGradient7116)" transform="translate(-11.857696,-509.39117)">
  <path id="path115" d="m318.77,739.42s4.384-3.896,6.842-8.917c2.457-5.023,3.067-12.163,3.067-12.163h-13.393l0.954,9.887h-9.388l0.954-9.887h-11.994l0.952,9.887h-9.388l0.953-9.887h-13.392s0.283,5.976,3.068,12.163c2.786,6.186,6.843,8.917,6.843,8.917h33.922z"/>
  <path id="path124" d="m282.08,787.24,3.789-39.69,32.036,0,3.791,39.69-39.616,0z"/>
  <path id="path133" d="m331.49,831.22s-0.452-2.209-0.878-3.484c-0.426-1.273-2.289-3.157-2.289-3.157h-52.936s-1.712,1.353-2.208,2.702c-0.494,1.352-0.977,3.939-0.977,3.939h59.288z"/>
  <path id="path142" d="m327.99,823.65c2.33-3.493,4.331-8.067,4.048-13.339-0.292-5.426-4.487-11.006-7.141-15.572h-44.898c-2.298,4.151-7.919,10.22-8.25,15.572-0.334,5.355,1.637,9.846,3.97,13.339h52.271z"/>
  <path id="path151" d="m326.96,790.79c-0.425-2.079-2.456-2.528-3.013-2.528h-20.924-3.732-19.1c-0.559,0-2.462,0.511-2.889,2.589-0.371,1.661,1.392,2.939,1.976,2.967,0.346,0.005,15.511,0.002,21.879,0,6.368,0.002,23.354,0.005,23.699,0,0.587-0.028,2.475-1.367,2.104-3.028z"/>
  <path id="path160" d="m322.52,743.27c-0.425-2.364-2.457-2.874-3.012-2.874h-16.166-3.731-15.293c-0.557,0-2.461,0.58-2.889,2.944-0.37,1.891,2.59,3.472,3.174,3.503,0.345,0.006,10.504-0.125,16.875-0.125,6.368,0,17.524,0.003,17.87-0.001,0.587-0.033,3.543-1.555,3.172-3.447z"/>
 </g>
 <g id="g6880" class="black king" fill="url(#linearGradient7084)" transform="translate(-11.857696,-509.39117)">
  <path id="path169" d="m120.84,831.2s-0.129-2.238-0.537-3.304c-0.41-1.068-1.823-2.258-1.823-2.258h-48.94s-1.4048,1.049-1.8794,2.181c-0.4731,1.129-0.4804,3.381-0.4804,3.381h53.66z"/>
  <path id="path178" d="m118.16,824.86c2.236-2.926,3.532-6.459,3.259-10.877-0.281-4.542-2.74-9.519-5.284-13.344h-43.74c-2.2041,3.477-5.4751,7.991-5.7939,12.476-0.3199,4.485,1.0229,8.819,3.2597,11.745h48.3z"/>
  <path id="path187" d="m117.94,797.33c-0.425-1.741-1.987-2.12-2.544-2.12h-19.075-3.7305-19.076c-0.5556,0-2.1172,0.379-2.5439,2.12-0.3687,1.393,1.0503,2.511,1.6348,2.534,0.3452,0.004,15.49,0.001,21.851,0.001,6.358,0,21.503,0.003,21.849-0.001,0.585-0.023,2.005-1.141,1.635-2.534z"/>
  <path id="path196" d="m114.94,794.52c-5.457-12.464-10.659-19.325-12.133-42.857h-17.6c-1.4736,23.532-5.8823,30.393-11.34,42.857h41.073z"/>
  <path id="path205" d="m101.76,680.5c-2.0691,2.116-4.5154,3.039-5.4641,2.062-0.9482-0.971-0.0483-3.468,2.0156-5.577,0.2827-0.295,0.5723-0.552,0.8682-0.796-1.4033-0.831-3.0249-1.304-4.7573-1.304-1.73,0-3.3531,0.475-4.7535,1.304,0.3379,0.262,0.667,0.567,0.9874,0.894,2.0625,2.115,2.9682,4.612,2.0156,5.583-0.9507,0.97-3.395,0.043-5.459-2.059-0.3389-0.349-0.6445-0.698-0.916-1.056-0.8697,1.468-1.376,3.199-1.376,5.048,0,1.762,0.4619,3.435,1.2725,4.858,0.2622-0.321,0.539-0.648,0.8525-0.963,2.0625-2.109,4.5049-3.032,5.4624-2.059,0.9468,0.975,0.0464,3.475-2.021,5.583-0.3154,0.32-0.6528,0.622-0.9785,0.886,1.4331,0.893,3.1186,1.403,4.9136,1.403,1.7739-0.003,3.4355-0.496,4.8584-1.36-0.3545-0.281-0.7027-0.587-1.0401-0.937-2.0639-2.109-2.9673-4.605-2.0166-5.575,0.9512-0.979,3.395-0.05,5.4609,2.059,0.34,0.342,0.647,0.698,0.919,1.06,0.841-1.452,1.329-3.149,1.329-4.961,0-1.831-0.498-3.547-1.367-5.009-0.237,0.304-0.512,0.621-0.806,0.916z"/>
  <path id="path214" d="m116.6,708c0-4.531-3.597-8.205-8.032-8.205-1.281,0-3.273,0.003-4.557,0.003v-2.015c0-1.297-1.03-2.35-2.3-2.35h-15.395c-1.27,0-2.2993,1.053-2.2993,2.35v2.015c-1.2861,0-3.2778-0.003-4.5591-0.003-4.435,0-8.0317,3.674-8.0317,8.205,0,1.985,0.8789,4.002,1.8423,5.559,1.3379,2.165,9.977,15.064,9.977,15.064l-0.792,13.992h-2.4214c-0.3559,0-3.104,1.107-3.3774,4.184-0.2368,2.464,2.4209,4.002,2.7964,4.047,0.2202,0.005,9.9297,0.001,14.007,0.001,4.0781,0,14.955,0.004,15.177-0.001,0.375-0.045,2.879-1.372,2.641-3.833-0.274-3.078-2.869-4.398-3.223-4.398h-2.481l-0.683-14.34s8.53-12.551,9.87-14.716c0.962-1.557,1.841-3.574,1.841-5.559z"/>
 </g>
 <g id="g6874" class="black pawn" fill="url(#linearGradient7092)" transform="translate(-11.857696,-509.39117)">
  <path id="path223" d="m58.951,831.22s-0.1192-2.06-0.4927-3.04c-0.3755-0.985-1.6694-2.079-1.6694-2.079h-42.194s-1.288,0.966-1.7226,2.007c-0.4351,1.041-0.44,3.112-0.44,3.112h46.519z"/>
  <path id="path232" d="m56.494,825.39c2.0498-2.692,3.2383-5.942,2.9873-10.006-0.2568-4.183-2.5102-8.758-4.8427-12.279h-37.428c-2.0214,3.201-5.017,7.352-5.3095,11.479-0.294,4.127,0.9355,8.114,2.9868,10.806h41.606z"/>
  <path id="path241" d="m56.296,800.06c-0.3892-1.602-1.8198-1.953-2.3301-1.953h-17.484-3.4174-14.825c-0.5092,0-1.9399,0.351-2.332,1.953-0.3384,1.279,0.9649,2.308,1.4995,2.331,0.3179,0.002,11.538,0,17.367,0,5.8277,0,19.707,0.002,20.024,0,0.5352-0.023,1.8365-1.052,1.4976-2.331z"/>
  <path id="path250" d="m49.947,765.24c0.3691-0.052,4.0449-1.968,3.8105-5.07-0.2695-3.879-4.0327-5.298-4.3843-5.298h-7.5791l-0.0097-0.106c4.7685-2.316,8.0517-7.257,8.0517-12.96,0-7.93-6.3589-14.357-14.199-14.357-7.8437,0-14.201,6.427-14.201,14.357,0,5.703,3.2847,10.644,8.0508,12.96l-0.0088,0.106h-7.6919c-0.3515,0-3.9648,1.421-4.2348,5.298-0.2315,3.102,3.292,5.018,3.6616,5.07,0.1308,0.006,3.7012,0.006,7.3857,0.004-1.4048,8.656-5.7602,23.269-9.4814,32.08h34.337c-4.083-7.676-9.3736-23.419-10.782-32.08,3.7055,0.002,7.1518,0.002,7.2744-0.004z"/>
 </g>
 <g id="g6896" class="black bishop" fill="url(#linearGradient7108)" transform="translate(-11.857696,-509.39117)">
  <path id="path259" d="m217.01,790.64c3.946-7.972,9.102-19.425,9.492-28.616h16.339c0.387,9.191,5.946,20.871,9.67,28.616h-35.501z"/>
  <path id="path268" d="m244.13,745.19c1.334,0,2.417-1.139,2.417-2.548,0-1.407-1.078-2.563-2.414-2.563,4.042-3.79,5.482-11.256,3.783-15.151-2.741-6.28-5.724-9.774-11.334-18.114,1.452-0.737,2.275-2.247,2.275-4.06,0-2.522-1.843-4.157-4.236-4.157s-3.799,1.635-3.799,4.157c0,1.813,0.553,3.323,2.004,4.06-1.533,2.275-3.922,5.721-5.051,7.42l3.924,8.617s0.731,1.346-0.55,1.386c-1.136,0.033-1.389-1.231-1.389-1.231l-3.111-6.886c-1.793,2.864-3.947,5.488-5.394,8.808-1.7,3.895-0.024,11.361,4.019,15.151-1.334,0-2.415,1.156-2.415,2.563,0,1.409,1.083,2.548,2.419,2.548h18.852z"/>
  <path id="path277" d="m257.6,831.22s-0.109-2.474-0.455-3.654c-0.346-1.179-1.54-2.496-1.54-2.496h-42.893s-1.188,1.162-1.591,2.412c-0.399,1.25-0.406,3.738-0.406,3.738h46.885z"/>
  <path id="path286" d="m255.34,824.21c1.89-3.232,3.766-7.654,3.536-12.536-0.236-5.025-3.098-10.005-5.245-14.235h-38.501c-1.865,3.845-5.218,8.824-5.487,13.781-0.269,4.958,1.454,9.758,3.344,12.99h42.353z"/>
  <path id="path295" d="m255.55,793.78c-0.362-1.925-2.075-2.341-2.544-2.341h-17.658-3.152-16.121c-0.468,0-2.075,0.473-2.437,2.398-0.311,1.538,1.175,2.721,1.67,2.748,0.292,0.004,13.089,0,18.465,0,5.373,0,19.709,0.004,20.001,0,0.494-0.027,2.087-1.267,1.776-2.805z"/>
  <path id="path304" d="m249.78,757.89c-0.234-2.533-2.443-3.618-2.745-3.618h-2.922v-8.322h-18.867v8.322h-2.068c-0.301,0-2.641,0.912-2.874,3.443-0.201,2.026,2.059,3.293,2.38,3.329,0.188,0.004,8.455,0.002,11.925,0.001,3.473,0.001,12.732,0.003,12.919-0.001,0.321-0.036,2.452-1.128,2.252-3.154z"/>
 </g>
 <g id="g6943" style="stroke-dasharray:none;" transform="matrix(-1,0,0,1,326.41671,-509.39117)" stroke="#b0b0b0" stroke-miterlimit="0" stroke-width="0.14173229" class="white queen" fill="url(#linearGradient7076)">
  <g id="g6918" style="stroke-dasharray:none;" stroke="#b0b0b0" stroke-miterlimit="0" stroke-width="0.14173229" fill="url(#linearGradient7076)">
   <g id="g6784" style="stroke-dasharray:none;" stroke="#b0b0b0" stroke-miterlimit="0" stroke-width="0.14173229" fill="url(#linearGradient7076)">
    <path id="path313" style="stroke-dasharray:none;" d="m148.72,629.52,0.61-1.133c5.414-10.04,10.09-18.715,11.53-40.878h17.587c1.456,22.385,6.455,31.522,11.748,41.197l0.444,0.814h-41.919z"/>
    <path id="path315" style="stroke-dasharray:none;" d="m178.33,587.64c1.467,22.326,6.465,31.462,11.755,41.132l0.344,0.629h-41.5l0.511-0.949c5.412-10.036,10.087-18.706,11.537-40.812h17.353m0.234-0.25-17.821,0c-1.492,23.205-6.628,31.828-12.232,42.261h42.339c-5.528-10.13-10.792-19.056-12.286-42.261z"/>
    <path id="path324" style="stroke-dasharray:none;" d="m169.96,539.29c-4.961,0-8.996-4.036-8.996-8.997,0-4.96,4.035-8.995,8.996-8.995,4.96,0,8.996,4.035,8.996,8.995,0,4.961-4.036,8.997-8.996,8.997z"/>
    <path id="path326" style="stroke-dasharray:none;" d="m169.96,521.42c4.892,0,8.871,3.979,8.871,8.87,0,4.892-3.979,8.872-8.871,8.872-4.891,0-8.871-3.98-8.871-8.872,0-4.891,3.98-8.87,8.871-8.87m0-0.25c-5.038,0-9.121,4.083-9.121,9.12,0,5.038,4.083,9.122,9.121,9.122,5.039,0,9.121-4.084,9.121-9.122,0-5.037-4.082-9.12-9.121-9.12z"/>
    <path id="path335" style="stroke-dasharray:none;" d="m141.53,665.67c0.01-0.479,0.074-2.217,0.469-3.139,0.456-1.063,1.824-2.072,1.838-2.082l50.683,0.024c-0.023,0.017,1.321,1.142,1.709,2.131,0.339,0.868,0.484,2.579,0.52,3.066h-55.219z"/>
    <path id="path337" style="stroke-dasharray:none;" d="m194.43,660.6c0.279,0.241,1.349,1.203,1.682,2.051,0.307,0.787,0.453,2.289,0.502,2.896h-54.956c0.018-0.6,0.099-2.131,0.456-2.964,0.386-0.901,1.461-1.772,1.733-1.983h50.583m0.092-0.25-50.759,0s-1.405,1.027-1.879,2.134-0.481,3.313-0.481,3.313h55.48s-0.13-2.192-0.538-3.237c-0.41-1.046-1.823-2.21-1.823-2.21z"/>
    <path id="path346" style="stroke-dasharray:none;" d="m144.14,659.47c-2.303-2.978-3.498-7.221-3.197-11.364,0.281-3.837,2.87-7.753,4.951-10.9,0.273-0.412,0.537-0.812,0.789-1.199h45.424c1.834,2.709,4.909,7.942,5.225,12.95,0.252,3.977-0.794,7.416-3.197,10.513h-49.995z"/>
    <path id="path348" style="stroke-dasharray:none;" d="m192.05,636.13c1.83,2.714,4.854,7.888,5.166,12.833,0.248,3.924-0.776,7.321-3.134,10.38h-49.871c-2.261-2.951-3.432-7.139-3.134-11.23,0.278-3.805,2.858-7.706,4.931-10.84,0.259-0.392,0.511-0.773,0.751-1.143h45.291m0.133-0.25-45.559,0c-2.206,3.406-5.476,7.823-5.796,12.215-0.32,4.39,1.023,8.634,3.261,11.498h50.116c2.238-2.864,3.534-6.324,3.26-10.646-0.28-4.451-2.738-9.32-5.282-13.067z"/>
    <path id="path357" style="stroke-dasharray:none;" d="m146.84,635c-0.287-0.012-0.836-0.349-1.192-0.834-0.242-0.33-0.495-0.857-0.323-1.49,0.406-1.626,1.886-1.982,2.423-1.982h43.7c0.537,0,2.017,0.356,2.423,1.98,0.172,0.636-0.081,1.163-0.324,1.493-0.367,0.5-0.906,0.821-1.194,0.833-0.133,0.002-2.825,0.003-6.43,0.003,0,0-38.947-0.001-39.083-0.003z"/>
    <path id="path359" style="stroke-dasharray:none;" d="m191.44,630.82c0.509,0,1.914,0.339,2.303,1.89,0.158,0.585-0.079,1.076-0.305,1.384-0.36,0.49-0.877,0.773-1.091,0.782-0.121,0.002-2.286,0.003-6.432,0.003l-17.234-0.003-16.036,0.003c-3.735,0-5.69-0.001-5.804-0.003-0.221-0.009-0.74-0.293-1.1-0.783-0.226-0.308-0.462-0.798-0.302-1.388,0.386-1.547,1.791-1.885,2.301-1.885h19.076,3.729,20.895m0-0.25h-20.895-3.729-19.076c-0.555,0-2.119,0.37-2.544,2.074-0.37,1.364,1.05,2.459,1.634,2.482,0.137,0.002,2.549,0.003,5.815,0.003,5.061,0,12.171-0.002,16.036-0.003,3.865,0.001,11.647,0.003,17.234,0.003,3.606,0,6.298-0.001,6.434-0.003,0.584-0.023,2.004-1.118,1.635-2.482-0.426-1.704-1.988-2.074-2.544-2.074z"/>
    <path id="path368" style="stroke-dasharray:none;" d="m158.34,586.6c-2.724,0-4.852-0.001-4.958-0.004-0.357-0.041-3.174-1.644-2.925-4.177,0.294-3.248,3.298-4.351,3.554-4.351h5.381l0.007-0.118c0.866-13.577-6.007-25.021-10.925-28.481-0.717-0.503-4.167-3.196-1.674-6.755,1.229-1.756,2.901-2.018,3.788-2.018,0.381,0,0.762,0.048,1.074,0.135,0.31,0.086,0.728,0.31,1.212,0.571,1.07,0.576,2.536,1.365,4.162,1.365,2.502,0,4.827-1.294,6.361-2.403,1.8,1.31,3.944,2.63,6.25,2.63,2.245,0,4.33-1.264,5.896-2.365,0.101-0.107,0.189-0.195,0.276-0.267l0.072-0.006c0.194,0.143,0.394,0.303,0.601,0.472,1.979,1.289,3.886,1.939,5.681,1.939,1.626,0,3.093-0.789,4.164-1.365,0.483-0.261,0.901-0.485,1.21-0.571,0.312-0.087,0.694-0.135,1.075-0.135,0.887,0,2.56,0.262,3.789,2.018,2.49,3.556-0.958,6.251-1.674,6.755-4.896,3.443-11.755,14.845-10.929,28.384l-0.022,0.144,0.132,0.071h4.623c0.358,0,3.099,1.406,3.388,4.577,0.247,2.515-2.342,3.903-2.769,3.952-0.082,0.001-1.927,0.003-5.473,0.003h-21.347z"/>
    <path id="path370" style="stroke-dasharray:none;" d="m175.85,540.5,0.052,0.022,0.003-0.002c0.165,0.125,0.339,0.264,0.531,0.419,1.988,1.295,3.919,1.951,5.738,1.951,1.658,0,3.14-0.798,4.223-1.381,0.477-0.256,0.889-0.478,1.184-0.56,0.302-0.084,0.672-0.13,1.042-0.13,0.863,0,2.49,0.255,3.687,1.964,2.422,3.46-0.945,6.09-1.644,6.582-4.916,3.456-11.802,14.892-10.983,28.467l-0.011,0.07-0.045,0.289h0.292,4.619c0.41,0.033,2.993,1.452,3.268,4.465,0.247,2.518-2.427,3.786-2.638,3.813-0.063,0.002-1.065,0.004-5.484,0.004l-11.042-0.003-10.297,0.003c-3.986,0-4.896-0.002-4.936-0.002-0.368-0.057-3.063-1.626-2.826-4.044,0.283-3.127,3.172-4.226,3.429-4.236h5.264,0.234l0.015-0.234c0.868-13.625-6.037-25.116-10.978-28.592-0.7-0.492-4.068-3.12-1.644-6.582,1.197-1.709,2.823-1.964,3.686-1.964,0.37,0,0.739,0.046,1.041,0.13,0.296,0.082,0.708,0.304,1.185,0.561,1.083,0.582,2.565,1.38,4.222,1.38,2.495,0,4.812-1.266,6.361-2.374,1.801,1.304,3.94,2.601,6.25,2.601,2.28,0,4.387-1.276,5.968-2.388l0.023-0.016,0.018-0.02,0.193-0.193m-0.037-0.293c-0.116,0.086-0.229,0.195-0.341,0.318-1.672,1.175-3.684,2.342-5.824,2.342-2.345,0-4.49-1.373-6.25-2.66-1.759,1.287-4.016,2.433-6.361,2.433-2.329,0-4.317-1.648-5.34-1.932-0.281-0.078-0.666-0.139-1.108-0.139-1.167,0-2.737,0.423-3.89,2.071-2.206,3.149,0.053,5.769,1.704,6.93,5.149,3.622,11.705,15.308,10.873,28.371h-5.264c-0.387,0-3.381,1.181-3.678,4.463-0.258,2.627,2.636,4.269,3.046,4.315,0.106,0.003,2.237,0.004,4.965,0.004,3.437,0,7.821-0.002,10.297-0.003,2.477,0.001,7.256,0.003,11.042,0.003,3.005,0,5.384-0.001,5.491-0.004,0.409-0.046,3.137-1.462,2.88-4.088-0.3-3.283-3.126-4.69-3.513-4.69h-4.623l0.015-0.098c-0.795-13.023,5.737-24.66,10.876-28.273,1.649-1.161,3.909-3.781,1.704-6.93-1.153-1.648-2.724-2.071-3.891-2.071-0.443,0-0.828,0.061-1.109,0.139-1.022,0.284-3.01,1.932-5.34,1.932-2.023,0-3.976-0.852-5.602-1.911-0.228-0.186-0.448-0.361-0.659-0.515l-0.047,0.031-0.053-0.038z"/>
    <path id="path665" style="stroke-dasharray:none;" d="m148.72,629.52,0.61-1.133c5.414-10.04,10.09-18.715,11.53-40.878h17.587c1.456,22.385,6.455,31.522,11.748,41.197l0.444,0.814h-41.919z"/>
    <path id="path667" style="stroke-dasharray:none;" d="m178.33,587.64c1.467,22.326,6.465,31.462,11.755,41.132l0.344,0.629h-41.5l0.511-0.949c5.412-10.036,10.087-18.706,11.537-40.812h17.353m0.234-0.25-17.821,0c-1.492,23.205-6.628,31.828-12.232,42.261h42.339c-5.528-10.13-10.792-19.056-12.286-42.261z"/>
    <path id="path676" style="stroke-dasharray:none;" d="m141.53,665.67c0.01-0.479,0.074-2.217,0.469-3.139,0.456-1.063,1.824-2.072,1.838-2.082l50.683,0.024c-0.023,0.017,1.321,1.142,1.709,2.131,0.339,0.868,0.484,2.579,0.52,3.066h-55.219z"/>
    <path id="path678" style="stroke-dasharray:none;" d="m194.43,660.6c0.279,0.241,1.349,1.203,1.682,2.051,0.307,0.787,0.453,2.289,0.502,2.896h-54.956c0.018-0.6,0.099-2.131,0.456-2.964,0.386-0.901,1.461-1.772,1.733-1.983h50.583m0.092-0.25-50.759,0s-1.405,1.027-1.879,2.134-0.481,3.313-0.481,3.313h55.48s-0.13-2.192-0.538-3.237c-0.41-1.046-1.823-2.21-1.823-2.21z"/>
    <path id="path687" style="stroke-dasharray:none;" d="m144.14,659.47c-2.303-2.978-3.498-7.221-3.197-11.364,0.281-3.837,2.87-7.753,4.951-10.9,0.273-0.412,0.537-0.812,0.789-1.199h45.424c1.834,2.709,4.909,7.942,5.225,12.95,0.252,3.977-0.794,7.416-3.197,10.513h-49.995z"/>
    <path id="path689" style="stroke-dasharray:none;" d="m192.05,636.13c1.83,2.714,4.854,7.888,5.166,12.833,0.248,3.924-0.776,7.321-3.134,10.38h-49.871c-2.261-2.951-3.432-7.139-3.134-11.23,0.278-3.805,2.858-7.706,4.931-10.84,0.259-0.392,0.511-0.773,0.751-1.143h45.291m0.133-0.25-45.559,0c-2.206,3.406-5.476,7.823-5.796,12.215-0.32,4.39,1.023,8.634,3.261,11.498h50.116c2.238-2.864,3.534-6.324,3.26-10.646-0.28-4.451-2.738-9.32-5.282-13.067z"/>
    <path id="path698" style="stroke-dasharray:none;" d="m146.84,635c-0.287-0.012-0.836-0.349-1.192-0.834-0.242-0.33-0.495-0.857-0.323-1.49,0.406-1.626,1.886-1.982,2.423-1.982h43.7c0.537,0,2.017,0.356,2.423,1.98,0.172,0.636-0.081,1.163-0.324,1.493-0.367,0.5-0.906,0.821-1.194,0.833-0.133,0.002-2.825,0.003-6.43,0.003,0,0-38.947-0.001-39.083-0.003z"/>
    <path id="path700" style="stroke-dasharray:none;" d="m191.44,630.82c0.509,0,1.914,0.339,2.303,1.89,0.158,0.585-0.079,1.076-0.305,1.384-0.36,0.49-0.877,0.773-1.091,0.782-0.121,0.002-2.286,0.003-6.432,0.003l-17.234-0.003-16.036,0.003c-3.735,0-5.69-0.001-5.804-0.003-0.221-0.009-0.74-0.293-1.1-0.783-0.226-0.308-0.462-0.798-0.302-1.388,0.386-1.547,1.791-1.885,2.301-1.885h19.076,3.729,20.895m0-0.25h-20.895-3.729-19.076c-0.555,0-2.119,0.37-2.544,2.074-0.37,1.364,1.05,2.459,1.634,2.482,0.137,0.002,2.549,0.003,5.815,0.003,5.061,0,12.171-0.002,16.036-0.003,3.865,0.001,11.647,0.003,17.234,0.003,3.606,0,6.298-0.001,6.434-0.003,0.584-0.023,2.004-1.118,1.635-2.482-0.426-1.704-1.988-2.074-2.544-2.074z"/>
    <path id="path709" style="stroke-dasharray:none;" d="m158.34,586.6c-2.724,0-4.852-0.001-4.958-0.004-0.357-0.041-3.174-1.644-2.925-4.177,0.294-3.248,3.298-4.351,3.554-4.351h5.381l0.007-0.118c0.866-13.577-6.007-25.021-10.925-28.481-0.717-0.503-4.167-3.196-1.674-6.755,1.229-1.756,2.901-2.018,3.788-2.018,0.381,0,0.762,0.048,1.074,0.135,0.31,0.086,0.728,0.31,1.212,0.571,1.07,0.576,2.536,1.365,4.162,1.365,2.502,0,4.827-1.294,6.361-2.403,1.8,1.31,3.944,2.63,6.25,2.63,2.245,0,4.33-1.264,5.896-2.365,0.101-0.107,0.189-0.195,0.276-0.267l0.072-0.006c0.194,0.143,0.394,0.303,0.601,0.472,1.979,1.289,3.886,1.939,5.681,1.939,1.626,0,3.093-0.789,4.164-1.365,0.483-0.261,0.901-0.485,1.21-0.571,0.312-0.087,0.694-0.135,1.075-0.135,0.887,0,2.56,0.262,3.789,2.018,2.49,3.556-0.958,6.251-1.674,6.755-4.896,3.443-11.755,14.845-10.929,28.384l-0.022,0.144,0.132,0.071h4.623c0.358,0,3.099,1.406,3.388,4.577,0.247,2.515-2.342,3.903-2.769,3.952-0.082,0.001-1.927,0.003-5.473,0.003h-21.347z"/>
    <path id="path711" style="stroke-dasharray:none;" d="m175.85,540.5,0.052,0.022,0.003-0.002c0.165,0.125,0.339,0.264,0.531,0.419,1.988,1.295,3.919,1.951,5.738,1.951,1.658,0,3.14-0.798,4.223-1.381,0.477-0.256,0.889-0.478,1.184-0.56,0.302-0.084,0.672-0.13,1.042-0.13,0.863,0,2.49,0.255,3.687,1.964,2.422,3.46-0.945,6.09-1.644,6.582-4.916,3.456-11.802,14.892-10.983,28.467l-0.011,0.07-0.045,0.289h0.292,4.619c0.41,0.033,2.993,1.452,3.268,4.465,0.247,2.518-2.427,3.786-2.638,3.813-0.063,0.002-1.065,0.004-5.484,0.004l-11.042-0.003-10.297,0.003c-3.986,0-4.896-0.002-4.936-0.002-0.368-0.057-3.063-1.626-2.826-4.044,0.283-3.127,3.172-4.226,3.429-4.236h5.264,0.234l0.015-0.234c0.868-13.625-6.037-25.116-10.978-28.592-0.7-0.492-4.068-3.12-1.644-6.582,1.197-1.709,2.823-1.964,3.686-1.964,0.37,0,0.739,0.046,1.041,0.13,0.296,0.082,0.708,0.304,1.185,0.561,1.083,0.582,2.565,1.38,4.222,1.38,2.495,0,4.812-1.266,6.361-2.374,1.801,1.304,3.94,2.601,6.25,2.601,2.28,0,4.387-1.276,5.968-2.388l0.023-0.016,0.018-0.02,0.193-0.193m-0.037-0.293c-0.116,0.086-0.229,0.195-0.341,0.318-1.672,1.175-3.684,2.342-5.824,2.342-2.345,0-4.49-1.373-6.25-2.66-1.759,1.287-4.016,2.433-6.361,2.433-2.329,0-4.317-1.648-5.34-1.932-0.281-0.078-0.666-0.139-1.108-0.139-1.167,0-2.737,0.423-3.89,2.071-2.206,3.149,0.053,5.769,1.704,6.93,5.149,3.622,11.705,15.308,10.873,28.371h-5.264c-0.387,0-3.381,1.181-3.678,4.463-0.258,2.627,2.636,4.269,3.046,4.315,0.106,0.003,2.237,0.004,4.965,0.004,3.437,0,7.821-0.002,10.297-0.003,2.477,0.001,7.256,0.003,11.042,0.003,3.005,0,5.384-0.001,5.491-0.004,0.409-0.046,3.137-1.462,2.88-4.088-0.3-3.283-3.126-4.69-3.513-4.69h-4.623l0.015-0.098c-0.795-13.023,5.737-24.66,10.876-28.273,1.649-1.161,3.909-3.781,1.704-6.93-1.153-1.648-2.724-2.071-3.891-2.071-0.443,0-0.828,0.061-1.109,0.139-1.022,0.284-3.01,1.932-5.34,1.932-2.023,0-3.976-0.852-5.602-1.911-0.228-0.186-0.448-0.361-0.659-0.515l-0.047,0.031-0.053-0.038z"/>
   </g>
  </g>
 </g>
 <g id="g7019" style="stroke-dasharray:none;" transform="translate(-11.857696,-509.39117)" stroke="#b0b0b0" stroke-miterlimit="0" stroke-width="0.14173229" class="white knight" fill="url(#linearGradient7068)">
  <g id="g6856" style="stroke-dasharray:none;" stroke="#b0b0b0" stroke-miterlimit="0" stroke-width="0.14173229" fill="url(#linearGradient7068)">
   <path id="path379" style="stroke-dasharray:none;" d="m351.3,628.26c-8.177-11.164-12.269-57.559,6.577-71.622,4.397-3.283,10.515-5.243,16.36-5.243,2.226,0,4.325,0.295,6.073,0.853l0.079,0.025,0.053-0.062c0.935-1.084,2.019-2.066,3.408-3.085,2.866,2.501,2.232,4.014,1.618,5.478-0.131,0.313-0.26,0.622-0.355,0.935l-0.03,0.099,0.092,0.048c0.94,0.493,3.296,2.055,4.848,5.895,1.676,4.138,6.769,10.316,10.683,12.96,4.283,2.893,3.186,5.031,1.667,7.99-1.524,2.976-3.613,5.089-4.001,5.468-0.973-0.504-1.622-1.011-2.25-1.501-0.836-0.652-1.624-1.268-3.072-1.823-1.108-0.426-2.43-0.642-3.927-0.642-1.768,0-3.747,0.296-5.88,0.879-0.842,0.23-1.638,0.347-2.367,0.347-5.36,0-5.738-6.067-5.764-6.759-0.033-0.876-0.59-1.348-1.099-1.348-0.505,0-1.107,0.448-1.141,1.711-0.33,12.42,8.922,25.643,17.679,32.699l-2.093,16.698h-37.158z"/>
   <path id="path381" style="stroke-dasharray:none;" d="m383.84,549.28c2.713,2.4,2.128,3.795,1.51,5.27-0.129,0.307-0.262,0.625-0.36,0.947l-0.059,0.198,0.182,0.096c0.929,0.486,3.254,2.029,4.791,5.831,1.684,4.157,6.798,10.361,10.73,13.017,4.19,2.83,3.114,4.927,1.625,7.829-1.445,2.822-3.403,4.864-3.912,5.371-0.919-0.484-1.545-0.972-2.152-1.445-0.843-0.659-1.638-1.28-3.103-1.842-1.123-0.431-2.459-0.65-3.972-0.65-1.78,0-3.769,0.297-5.913,0.883-0.831,0.228-1.616,0.343-2.334,0.343-5.243,0-5.614-5.959-5.639-6.639-0.036-0.954-0.657-1.468-1.224-1.468-0.562,0-1.23,0.48-1.266,1.833-0.33,12.436,8.907,25.67,17.671,32.756l-2.07,16.519h-36.985c-8.133-11.228-12.178-57.392,6.588-71.397,4.378-3.268,10.466-5.218,16.286-5.218,2.213,0,4.3,0.293,6.035,0.847l0.157,0.051,0.108-0.126c0.909-1.055,1.964-2.014,3.306-3.006m0.013-0.319c-1.177,0.857-2.39,1.865-3.508,3.162-1.777-0.568-3.869-0.859-6.111-0.859-5.385,0-11.634,1.684-16.435,5.268-18.988,14.169-14.704,60.858-6.566,71.847h37.332l2.116-16.876c-8.733-7.014-18.018-20.189-17.687-32.643,0.029-1.108,0.527-1.589,1.016-1.589,0.476,0,0.945,0.454,0.974,1.228,0.096,2.605,1.407,6.879,5.889,6.879,0.717,0,1.514-0.109,2.4-0.352,1.998-0.545,4.006-0.874,5.847-0.874,1.419,0,2.739,0.195,3.882,0.634,2.561,0.981,3.059,2.175,5.39,3.359,0,0,2.381-2.228,4.089-5.563,1.579-3.077,2.571-5.261-1.708-8.15-3.759-2.54-8.895-8.603-10.637-12.904-1.327-3.281-3.356-5.146-4.907-5.959,0.551-1.814,2.266-3.476-1.376-6.608z"/>
   <path id="path390" style="stroke-dasharray:none;" d="m345.03,665.67c0.01-0.491,0.071-2.301,0.453-3.261,0.442-1.102,1.765-2.147,1.779-2.157l44.426,0.026c-0.025,0.018,1.272,1.183,1.647,2.207,0.329,0.904,0.47,2.687,0.504,3.185h-48.809z"/>
   <path id="path392" style="stroke-dasharray:none;" d="m391.59,660.4c0.275,0.256,1.304,1.248,1.624,2.124,0.299,0.822,0.441,2.395,0.487,3.018h-48.546c0.017-0.616,0.094-2.217,0.442-3.089,0.372-0.93,1.403-1.829,1.674-2.053h44.319m0.096-0.25-44.504,0s-1.359,1.064-1.818,2.21c-0.457,1.147-0.464,3.432-0.464,3.432h49.069s-0.126-2.271-0.52-3.353c-0.396-1.084-1.763-2.289-1.763-2.289z"/>
   <path id="path401" style="stroke-dasharray:none;" d="m347.55,659.17c-2.227-3.09-3.381-7.487-3.088-11.778,0.267-3.972,2.77-8.027,4.78-11.285,0.265-0.428,0.522-0.844,0.766-1.247h39.341c1.771,2.806,4.744,8.226,5.051,13.414,0.243,4.122-0.769,7.688-3.092,10.896h-43.758z"/>
   <path id="path403" style="stroke-dasharray:none;" d="m389.28,634.99c1.77,2.812,4.693,8.171,4.996,13.296,0.24,4.071-0.752,7.593-3.031,10.764h-43.63c-2.186-3.064-3.317-7.406-3.028-11.645,0.266-3.941,2.76-7.981,4.763-11.227,0.251-0.407,0.496-0.804,0.729-1.188h39.201m0.138-0.25-39.48,0c-2.13,3.527-5.293,8.102-5.6,12.649-0.311,4.549,0.988,8.943,3.149,11.911h43.886c2.164-2.968,3.416-6.552,3.153-11.029-0.273-4.607-2.649-9.651-5.108-13.531z"/>
   <path id="path412" style="stroke-dasharray:none;" d="m350.15,633.9c-0.249-0.011-0.739-0.314-1.089-0.784-0.266-0.358-0.547-0.932-0.37-1.63,0.395-1.688,1.821-2.057,2.336-2.057h37.683c0.518,0,1.946,0.369,2.339,2.054,0.178,0.701-0.103,1.274-0.368,1.632-0.351,0.471-0.842,0.774-1.097,0.785-0.137,0.002-2.832,0.002-6.362,0.002l-33.072-0.002z"/>
   <path id="path414" style="stroke-dasharray:none;" d="m388.71,629.56c0.49,0,1.843,0.352,2.219,1.963,0.165,0.65-0.099,1.187-0.349,1.523-0.347,0.466-0.805,0.727-0.992,0.735-0.142,0.002-2.841,0.002-6.374,0.002l-14.745-0.002-13.023,0.002c-2.954,0-5.152,0-5.286-0.002-0.196-0.008-0.652-0.268-0.999-0.733-0.25-0.337-0.513-0.874-0.349-1.53,0.376-1.606,1.727-1.958,2.215-1.958h15.637,3.606,18.44m0-0.25h-18.44-3.606-15.637c-0.537,0-2.045,0.387-2.458,2.151-0.356,1.411,1.016,2.546,1.58,2.57,0.142,0.002,2.342,0.002,5.297,0.002,4.033,0,9.474-0.001,13.023-0.002,3.547,0.001,9.923,0.002,14.745,0.002,3.534,0,6.234,0,6.376-0.002,0.565-0.024,1.938-1.159,1.581-2.57-0.411-1.764-1.923-2.151-2.461-2.151z"/>
   <path id="path720" style="stroke-dasharray:none;" d="m351.3,628.26c-8.177-11.164-12.269-57.559,6.577-71.622,4.397-3.283,10.515-5.243,16.36-5.243,2.226,0,4.325,0.295,6.073,0.853l0.079,0.025,0.053-0.062c0.935-1.084,2.019-2.066,3.408-3.085,2.866,2.501,2.232,4.014,1.618,5.478-0.131,0.313-0.26,0.622-0.355,0.935l-0.03,0.099,0.092,0.048c0.94,0.493,3.296,2.055,4.848,5.895,1.676,4.138,6.769,10.316,10.683,12.96,4.283,2.893,3.186,5.031,1.667,7.99-1.524,2.976-3.613,5.089-4.001,5.468-0.973-0.504-1.622-1.011-2.25-1.501-0.836-0.652-1.624-1.268-3.072-1.823-1.108-0.426-2.43-0.642-3.927-0.642-1.768,0-3.747,0.296-5.88,0.879-0.842,0.23-1.638,0.347-2.367,0.347-5.36,0-5.738-6.067-5.764-6.759-0.033-0.876-0.59-1.348-1.099-1.348-0.505,0-1.107,0.448-1.141,1.711-0.33,12.42,8.922,25.643,17.679,32.699l-2.093,16.698h-37.158z"/>
   <path id="path722" style="stroke-dasharray:none;" d="m383.84,549.28c2.713,2.4,2.128,3.795,1.51,5.27-0.129,0.307-0.262,0.625-0.36,0.947l-0.059,0.198,0.182,0.096c0.929,0.486,3.254,2.029,4.791,5.831,1.684,4.157,6.798,10.361,10.73,13.017,4.19,2.83,3.114,4.927,1.625,7.829-1.445,2.822-3.403,4.864-3.912,5.371-0.919-0.484-1.545-0.972-2.152-1.445-0.843-0.659-1.638-1.28-3.103-1.842-1.123-0.431-2.459-0.65-3.972-0.65-1.78,0-3.769,0.297-5.913,0.883-0.831,0.228-1.616,0.343-2.334,0.343-5.243,0-5.614-5.959-5.639-6.639-0.036-0.954-0.657-1.468-1.224-1.468-0.562,0-1.23,0.48-1.266,1.833-0.33,12.436,8.907,25.67,17.671,32.756l-2.07,16.519h-36.985c-8.133-11.228-12.178-57.392,6.588-71.397,4.378-3.268,10.466-5.218,16.286-5.218,2.213,0,4.3,0.293,6.035,0.847l0.157,0.051,0.108-0.126c0.909-1.055,1.964-2.014,3.306-3.006m0.013-0.319c-1.177,0.857-2.39,1.865-3.508,3.162-1.777-0.568-3.869-0.859-6.111-0.859-5.385,0-11.634,1.684-16.435,5.268-18.988,14.169-14.704,60.858-6.566,71.847h37.332l2.116-16.876c-8.733-7.014-18.018-20.189-17.687-32.643,0.029-1.108,0.527-1.589,1.016-1.589,0.476,0,0.945,0.454,0.974,1.228,0.096,2.605,1.407,6.879,5.889,6.879,0.717,0,1.514-0.109,2.4-0.352,1.998-0.545,4.006-0.874,5.847-0.874,1.419,0,2.739,0.195,3.882,0.634,2.561,0.981,3.059,2.175,5.39,3.359,0,0,2.381-2.228,4.089-5.563,1.579-3.077,2.571-5.261-1.708-8.15-3.759-2.54-8.895-8.603-10.637-12.904-1.327-3.281-3.356-5.146-4.907-5.959,0.551-1.814,2.266-3.476-1.376-6.608z"/>
   <path id="path731" style="stroke-dasharray:none;" d="m345.03,665.67c0.01-0.491,0.071-2.301,0.453-3.261,0.442-1.102,1.765-2.147,1.779-2.157l44.426,0.026c-0.025,0.018,1.272,1.183,1.647,2.207,0.329,0.904,0.47,2.687,0.504,3.185h-48.809z"/>
   <path id="path733" style="stroke-dasharray:none;" d="m391.59,660.4c0.275,0.256,1.304,1.248,1.624,2.124,0.299,0.822,0.441,2.395,0.487,3.018h-48.546c0.017-0.616,0.094-2.217,0.442-3.089,0.372-0.93,1.403-1.829,1.674-2.053h44.319m0.096-0.25-44.504,0s-1.359,1.064-1.818,2.21c-0.457,1.147-0.464,3.432-0.464,3.432h49.069s-0.126-2.271-0.52-3.353c-0.396-1.084-1.763-2.289-1.763-2.289z"/>
   <path id="path742" style="stroke-dasharray:none;" d="m347.55,659.17c-2.227-3.09-3.381-7.487-3.088-11.778,0.267-3.972,2.77-8.027,4.78-11.285,0.265-0.428,0.522-0.844,0.766-1.247h39.341c1.771,2.806,4.744,8.226,5.051,13.414,0.243,4.122-0.769,7.688-3.092,10.896h-43.758z"/>
   <path id="path744" style="stroke-dasharray:none;" d="m389.28,634.99c1.77,2.812,4.693,8.171,4.996,13.296,0.24,4.071-0.752,7.593-3.031,10.764h-43.63c-2.186-3.064-3.317-7.406-3.028-11.645,0.266-3.941,2.76-7.981,4.763-11.227,0.251-0.407,0.496-0.804,0.729-1.188h39.201m0.138-0.25-39.48,0c-2.13,3.527-5.293,8.102-5.6,12.649-0.311,4.549,0.988,8.943,3.149,11.911h43.886c2.164-2.968,3.416-6.552,3.153-11.029-0.273-4.607-2.649-9.651-5.108-13.531z"/>
   <path id="path753" style="stroke-dasharray:none;" d="m350.15,633.9c-0.249-0.011-0.739-0.314-1.089-0.784-0.266-0.358-0.547-0.932-0.37-1.63,0.395-1.688,1.821-2.057,2.336-2.057h37.683c0.518,0,1.946,0.369,2.339,2.054,0.178,0.701-0.103,1.274-0.368,1.632-0.351,0.471-0.842,0.774-1.097,0.785-0.137,0.002-2.832,0.002-6.362,0.002l-33.072-0.002z"/>
   <path id="path755" style="stroke-dasharray:none;" d="m388.71,629.56c0.49,0,1.843,0.352,2.219,1.963,0.165,0.65-0.099,1.187-0.349,1.523-0.347,0.466-0.805,0.727-0.992,0.735-0.142,0.002-2.841,0.002-6.374,0.002l-14.745-0.002-13.023,0.002c-2.954,0-5.152,0-5.286-0.002-0.196-0.008-0.652-0.268-0.999-0.733-0.25-0.337-0.513-0.874-0.349-1.53,0.376-1.606,1.727-1.958,2.215-1.958h15.637,3.606,18.44m0-0.25h-18.44-3.606-15.637c-0.537,0-2.045,0.387-2.458,2.151-0.356,1.411,1.016,2.546,1.58,2.57,0.142,0.002,2.342,0.002,5.297,0.002,4.033,0,9.474-0.001,13.023-0.002,3.547,0.001,9.923,0.002,14.745,0.002,3.534,0,6.234,0,6.376-0.002,0.565-0.024,1.938-1.159,1.581-2.57-0.411-1.764-1.923-2.151-2.461-2.151z"/>
  </g>
 </g>
 <g id="g6994" style="stroke-dasharray:none;" transform="matrix(-1,0,0,1,593.737,-509.39117)" stroke="#b0b0b0" stroke-miterlimit="0" stroke-width="0.14173229" class="white rook" fill="url(#linearGradient7060)">
  <g id="g6832" style="stroke-dasharray:none;" stroke="#b0b0b0" stroke-miterlimit="0" stroke-width="0.14173229" fill="url(#linearGradient7060)">
   <path id="path423" style="stroke-dasharray:none;" d="m285.76,573.87c0.03-0.006-3.992-2.765-6.729-8.846-2.517-5.591-2.987-11.076-3.049-11.985h13.122l-0.954,9.887h9.662l-0.951-9.887h11.719l-0.953,9.887h9.662l-0.953-9.887h13.117c-0.099,1.01-0.808,7.418-3.041,11.982-2.304,4.708-6.359,8.468-6.778,8.849h-33.874z"/>
   <path id="path425" style="stroke-dasharray:none;" d="m329.32,553.17c-0.142,1.349-0.876,7.427-3.016,11.802-2.239,4.577-6.147,8.258-6.715,8.779h-33.746c-0.512-0.369-4.157-3.135-6.694-8.772-2.407-5.346-2.935-10.594-3.028-11.809h12.849l-0.927,9.613-0.026,0.274h0.275,9.387,0.275l-0.026-0.274-0.925-9.613h11.443l-0.926,9.613-0.027,0.274h0.276,9.386,0.276l-0.027-0.274-0.926-9.613h12.842m0.275-0.25-13.393,0,0.953,9.887-9.386,0,0.953-9.887-11.994,0,0.951,9.887-9.387,0,0.953-9.887-13.392,0s0.283,5.976,3.068,12.162c2.785,6.188,6.843,8.919,6.843,8.919h33.922s4.384-3.896,6.842-8.919c2.456-5.021,3.067-12.162,3.067-12.162z"/>
   <path id="path434" style="stroke-dasharray:none;" d="m283.12,621.7,3.769-39.442,31.808,0,3.768,39.442-39.345,0z"/>
   <path id="path436" style="stroke-dasharray:none;" d="m318.59,582.38,3.744,39.192-39.069,0,3.744-39.192,31.581,0m0.227-0.25-32.035,0-3.792,39.692,39.619,0-3.792-39.692z"/>
   <path id="path445" style="stroke-dasharray:none;" d="m273.26,665.67c0.111-0.567,0.527-2.631,0.944-3.771,0.479-1.302,2.151-2.634,2.168-2.647l52.859,0.027c-0.034,0.018,1.762,1.852,2.171,3.071,0.355,1.062,0.733,2.802,0.842,3.32h-58.984z"/>
   <path id="path447" style="stroke-dasharray:none;" d="m329.12,659.4c0.342,0.356,1.8,1.919,2.157,2.985,0.324,0.97,0.668,2.51,0.807,3.156h-58.678c0.142-0.715,0.526-2.554,0.909-3.603,0.413-1.121,1.749-2.278,2.063-2.538h52.742m0.105-0.25-52.937,0s-1.711,1.352-2.208,2.702c-0.493,1.35-0.978,3.939-0.978,3.939h59.29s-0.452-2.21-0.877-3.485c-0.427-1.273-2.29-3.156-2.29-3.156z"/>
   <path id="path456" style="stroke-dasharray:none;" d="m276.69,658.11c-2.872-4.323-4.189-8.766-3.911-13.208,0.231-3.746,3.063-7.823,5.561-11.421,1.008-1.452,1.962-2.825,2.638-4.034h44.751c0.505,0.866,1.065,1.768,1.641,2.698,2.444,3.943,5.215,8.412,5.448,12.756,0.238,4.42-1.105,8.863-3.991,13.209h-52.137z"/>
   <path id="path458" style="stroke-dasharray:none;" d="m325.66,629.57c0.496,0.848,1.036,1.719,1.607,2.639,2.435,3.93,5.197,8.384,5.428,12.696,0.236,4.374-1.088,8.773-3.932,13.078h-52.003c-2.832-4.282-4.129-8.68-3.855-13.075,0.23-3.712,3.051-7.774,5.54-11.358,0.992-1.428,1.931-2.781,2.608-3.98h44.607m0.144-0.25-44.898,0c-2.298,4.153-7.919,10.219-8.25,15.572-0.334,5.355,1.637,9.848,3.969,13.341h52.271c2.33-3.493,4.332-8.068,4.049-13.341-0.292-5.426-4.487-11.005-7.141-15.572z"/>
   <path id="path467" style="stroke-dasharray:none;" d="m280.19,628.27c-0.266-0.013-0.919-0.376-1.394-0.999-0.306-0.401-0.635-1.042-0.462-1.816,0.421-2.048,2.32-2.49,2.768-2.49h43.755c0.506,0,2.479,0.412,2.891,2.427,0.167,0.749-0.164,1.385-0.472,1.788-0.499,0.654-1.218,1.075-1.515,1.09-0.157,0.002-3.931,0.003-8.559,0.003,0,0-36.851-0.001-37.012-0.003z"/>
   <path id="path469" style="stroke-dasharray:none;" d="m324.86,623.09c0.485,0,2.373,0.394,2.769,2.331,0.156,0.7-0.158,1.302-0.449,1.684-0.498,0.652-1.201,1.029-1.414,1.04-0.139,0.002-3.099,0.003-8.561,0.003l-15.135-0.002-14.132,0.002c-6.226,0-7.647-0.002-7.736-0.003-0.216-0.01-0.836-0.336-1.304-0.95-0.29-0.38-0.601-0.985-0.437-1.717,0.402-1.963,2.216-2.388,2.644-2.388h19.098,3.734,20.923m0-0.25h-20.923-3.734-19.098c-0.559,0-2.463,0.509-2.89,2.588-0.371,1.662,1.392,2.939,1.975,2.967,0.162,0.002,3.542,0.003,7.748,0.003,4.822,0,10.731-0.001,14.132-0.002,3.401,0.001,9.83,0.002,15.135,0.002,4.629,0,8.403-0.001,8.565-0.003,0.584-0.028,2.474-1.365,2.103-3.028-0.425-2.079-2.458-2.527-3.013-2.527z"/>
   <path id="path478" style="stroke-dasharray:none;" d="m285.51,581.29c-0.364-0.02-1.787-0.733-2.562-1.73-0.429-0.553-0.595-1.099-0.492-1.625,0.422-2.337,2.319-2.843,2.767-2.843h35.189c0.505,0,2.476,0.47,2.89,2.77,0.101,0.519-0.057,1.053-0.471,1.587-0.762,0.984-2.205,1.692-2.586,1.715-0.127,0.002-17.862,0-17.862,0-4.612,0.001-11.131,0.069-14.634,0.105-1.2,0.013-2.009,0.021-2.204,0.021h-0.035z"/>
   <path id="path480" style="stroke-dasharray:none;" d="m320.41,575.22c0.484,0,2.368,0.452,2.768,2.672,0.093,0.48-0.057,0.979-0.448,1.484-0.748,0.966-2.169,1.647-2.483,1.666-0.133,0.002-1.876,0.002-4.334,0.002l-11.063-0.002h-2.469c-4.613,0.001-11.133,0.069-14.635,0.105-1.2,0.013-2.008,0.021-2.226,0.022-0.313-0.018-1.714-0.704-2.475-1.683-0.406-0.522-0.564-1.035-0.467-1.527,0.405-2.252,2.216-2.739,2.643-2.739h15.293,3.731,16.165m0-0.25h-16.165-3.731-15.293c-0.556,0-2.463,0.58-2.889,2.944-0.37,1.892,2.589,3.471,3.174,3.504h0.037c0.751,0,10.607-0.125,16.838-0.126,3.909,0.001,9.623,0.002,13.532,0.002,2.46,0,4.204,0,4.338-0.002,0.584-0.035,3.543-1.557,3.172-3.449-0.425-2.362-2.456-2.873-3.013-2.873z"/>
   <path id="path764" style="stroke-dasharray:none;" d="m283.12,621.7,3.769-39.442,31.808,0,3.768,39.442-39.345,0z"/>
   <path id="path766" style="stroke-dasharray:none;" d="m318.59,582.38,3.744,39.192-39.069,0,3.744-39.192,31.581,0m0.227-0.25-32.035,0-3.792,39.692,39.619,0-3.792-39.692z"/>
   <path id="path775" style="stroke-dasharray:none;" d="m273.26,665.67c0.111-0.567,0.527-2.631,0.944-3.771,0.479-1.302,2.151-2.634,2.168-2.647l52.859,0.027c-0.034,0.018,1.762,1.852,2.171,3.071,0.355,1.062,0.733,2.802,0.842,3.32h-58.984z"/>
   <path id="path777" style="stroke-dasharray:none;" d="m329.12,659.4c0.342,0.356,1.8,1.919,2.157,2.985,0.324,0.97,0.668,2.51,0.807,3.156h-58.678c0.142-0.715,0.526-2.554,0.909-3.603,0.413-1.121,1.749-2.278,2.063-2.538h52.742m0.105-0.25-52.937,0s-1.711,1.352-2.208,2.702c-0.493,1.35-0.978,3.939-0.978,3.939h59.29s-0.452-2.21-0.877-3.485c-0.427-1.273-2.29-3.156-2.29-3.156z"/>
   <path id="path786" style="stroke-dasharray:none;" d="m276.69,658.11c-2.872-4.323-4.189-8.766-3.911-13.208,0.231-3.746,3.063-7.823,5.561-11.421,1.008-1.452,1.962-2.825,2.638-4.034h44.751c0.505,0.866,1.065,1.768,1.641,2.698,2.444,3.943,5.215,8.412,5.448,12.756,0.238,4.42-1.105,8.863-3.991,13.209h-52.137z"/>
   <path id="path788" style="stroke-dasharray:none;" d="m325.66,629.57c0.496,0.848,1.036,1.719,1.607,2.639,2.435,3.93,5.197,8.384,5.428,12.696,0.236,4.374-1.088,8.773-3.932,13.078h-52.003c-2.832-4.282-4.129-8.68-3.855-13.075,0.23-3.712,3.051-7.774,5.54-11.358,0.992-1.428,1.931-2.781,2.608-3.98h44.607m0.144-0.25-44.898,0c-2.298,4.153-7.919,10.219-8.25,15.572-0.334,5.355,1.637,9.848,3.969,13.341h52.271c2.33-3.493,4.332-8.068,4.049-13.341-0.292-5.426-4.487-11.005-7.141-15.572z"/>
   <path id="path797" style="stroke-dasharray:none;" d="m280.19,628.27c-0.266-0.013-0.919-0.376-1.394-0.999-0.306-0.401-0.635-1.042-0.462-1.816,0.421-2.048,2.32-2.49,2.768-2.49h43.755c0.506,0,2.479,0.412,2.891,2.427,0.167,0.749-0.164,1.385-0.472,1.788-0.499,0.654-1.218,1.075-1.515,1.09-0.157,0.002-3.931,0.003-8.559,0.003,0,0-36.851-0.001-37.012-0.003z"/>
   <path id="path799" style="stroke-dasharray:none;" d="m324.86,623.09c0.485,0,2.373,0.394,2.769,2.331,0.156,0.7-0.158,1.302-0.449,1.684-0.498,0.652-1.201,1.029-1.414,1.04-0.139,0.002-3.099,0.003-8.561,0.003l-15.135-0.002-14.132,0.002c-6.226,0-7.647-0.002-7.736-0.003-0.216-0.01-0.836-0.336-1.304-0.95-0.29-0.38-0.601-0.985-0.437-1.717,0.402-1.963,2.216-2.388,2.644-2.388h19.098,3.734,20.923m0-0.25h-20.923-3.734-19.098c-0.559,0-2.463,0.509-2.89,2.588-0.371,1.662,1.392,2.939,1.975,2.967,0.162,0.002,3.542,0.003,7.748,0.003,4.822,0,10.731-0.001,14.132-0.002,3.401,0.001,9.83,0.002,15.135,0.002,4.629,0,8.403-0.001,8.565-0.003,0.584-0.028,2.474-1.365,2.103-3.028-0.425-2.079-2.458-2.527-3.013-2.527z"/>
   <path id="path808" style="stroke-dasharray:none;" d="m285.51,581.29c-0.364-0.02-1.787-0.733-2.562-1.73-0.429-0.553-0.595-1.099-0.492-1.625,0.422-2.337,2.319-2.843,2.767-2.843h35.189c0.505,0,2.476,0.47,2.89,2.77,0.101,0.519-0.057,1.053-0.471,1.587-0.762,0.984-2.205,1.692-2.586,1.715-0.127,0.002-17.862,0-17.862,0-4.612,0.001-11.131,0.069-14.634,0.105-1.2,0.013-2.009,0.021-2.204,0.021h-0.035z"/>
   <path id="path810" style="stroke-dasharray:none;" d="m320.41,575.22c0.484,0,2.368,0.452,2.768,2.672,0.093,0.48-0.057,0.979-0.448,1.484-0.748,0.966-2.169,1.647-2.483,1.666-0.133,0.002-1.876,0.002-4.334,0.002l-11.063-0.002h-2.469c-4.613,0.001-11.133,0.069-14.635,0.105-1.2,0.013-2.008,0.021-2.226,0.022-0.313-0.018-1.714-0.704-2.475-1.683-0.406-0.522-0.564-1.035-0.467-1.527,0.405-2.252,2.216-2.739,2.643-2.739h15.293,3.731,16.165m0-0.25h-16.165-3.731-15.293c-0.556,0-2.463,0.58-2.889,2.944-0.37,1.892,2.589,3.471,3.174,3.504h0.037c0.751,0,10.607-0.125,16.838-0.126,3.909,0.001,9.623,0.002,13.532,0.002,2.46,0,4.204,0,4.338-0.002,0.584-0.035,3.543-1.557,3.172-3.449-0.425-2.362-2.456-2.873-3.013-2.873z"/>
  </g>
 </g>
 <g id="g5513" style="stroke-dasharray:none;" transform="matrix(-1,0,0,1,177.96296,-509.39117)" stroke="#b0b0b0" stroke-miterlimit="0" stroke-width="0.14173229" class="white king" fill="url(#linearGradient6327)">
  <path id="path489" style="stroke-dasharray:none;" d="m68.213,665.65c0.0098-0.486,0.0732-2.265,0.4683-3.21,0.4555-1.087,1.8256-2.118,1.8393-2.128l48.864,0.025c-0.024,0.017,1.321,1.168,1.708,2.176,0.34,0.89,0.486,2.643,0.521,3.137h-53.4z"/>
  <path id="path491" style="stroke-dasharray:none;" d="m119.29,660.46c0.28,0.248,1.351,1.231,1.682,2.095,0.309,0.808,0.455,2.351,0.503,2.968h-53.137c0.0176-0.609,0.0977-2.179,0.4556-3.037,0.3867-0.921,1.4609-1.81,1.7349-2.026h48.762m0.093-0.25-48.94,0s-1.4053,1.047-1.8799,2.18c-0.4731,1.132-0.48,3.383-0.48,3.383h53.661s-0.13-2.239-0.538-3.307c-0.41-1.066-1.823-2.256-1.823-2.256z"/>
  <path id="path500" style="stroke-dasharray:none;" d="m70.828,659.31c-2.3042-3.045-3.499-7.38-3.1968-11.612,0.2789-3.921,2.8692-7.922,4.9502-11.136,0.272-0.42,0.5367-0.828,0.7876-1.223h43.605c1.834,2.767,4.911,8.112,5.226,13.228,0.251,4.063-0.795,7.578-3.196,10.743h-48.176z"/>
  <path id="path502" style="stroke-dasharray:none;" d="m116.91,635.47c1.831,2.772,4.857,8.058,5.168,13.111,0.248,4.011-0.778,7.483-3.133,10.61h-48.051c-2.2622-3.019-3.4331-7.299-3.1343-11.478,0.2764-3.889,2.857-7.874,4.9302-11.077,0.2588-0.4,0.5108-0.789,0.751-1.166h43.47m0.134-0.25-43.741,0c-2.2051,3.478-5.4746,7.99-5.7935,12.476-0.3203,4.483,1.0225,8.818,3.2593,11.745h48.3c2.236-2.927,3.531-6.459,3.259-10.875-0.281-4.547-2.74-9.52-5.284-13.346z"/>
  <path id="path511" style="stroke-dasharray:none;" d="m73.517,634.32c-0.2773-0.011-0.8071-0.33-1.1728-0.826-0.253-0.343-0.5181-0.89-0.3433-1.551,0.4082-1.664,1.8882-2.027,2.4238-2.027h41.882c0.536,0,2.017,0.363,2.423,2.025,0.176,0.662-0.088,1.209-0.341,1.552-0.367,0.496-0.896,0.816-1.178,0.827-0.144,0.002-3.006,0.002-6.73,0.002l-36.963-0.002z"/>
  <path id="path513" style="stroke-dasharray:none;" d="m116.31,630.04c0.509,0,1.914,0.346,2.302,1.934,0.163,0.613-0.085,1.123-0.321,1.444-0.363,0.492-0.862,0.767-1.075,0.776-0.127,0.001-2.334,0.002-6.747,0.002h-8.682l-6.4168-0.001-6.4194,0.001h-8.6822c-4.4125,0-6.6191-0.001-6.7397-0.002-0.2192-0.009-0.7173-0.283-1.0806-0.775-0.2368-0.321-0.4848-0.832-0.3217-1.45,0.3881-1.583,1.7929-1.929,2.3017-1.929h19.076,3.73,19.076m0-0.25h-19.076-3.73-19.076c-0.5571,0-2.1177,0.38-2.5444,2.12-0.3687,1.392,1.0503,2.511,1.6352,2.534,0.148,0.002,3.0181,0.002,6.7495,0.002,4.9703,0,11.468-0.001,15.102-0.001,3.6314,0,10.13,0.001,15.099,0.001,3.733,0,6.602,0,6.75-0.002,0.585-0.023,2.005-1.142,1.635-2.534-0.425-1.74-1.988-2.12-2.544-2.12z"/>
  <path id="path522" style="stroke-dasharray:none;" d="m74.968,628.97c0.6509-1.484,1.2871-2.888,1.9048-4.253,4.5034-9.949,8.0625-17.811,9.3608-38.354h17.364c1.233,19.454,5.011,27.486,9.385,36.783,0.871,1.852,1.771,3.765,2.676,5.824h-40.69z"/>
  <path id="path524" style="stroke-dasharray:none;" d="m103.48,586.49c1.243,19.393,5.019,27.422,9.39,36.711,0.846,1.799,1.719,3.655,2.598,5.646h-40.308c0.624-1.419,1.2344-2.766,1.8271-4.077,4.5005-9.941,8.0586-17.801,9.3648-38.28h17.128m0.235-0.25-17.598,0c-1.4741,23.532-5.8823,30.393-11.34,42.857h41.074c-5.458-12.464-10.66-19.325-12.136-42.857z"/>
  <path id="path533" style="stroke-dasharray:none;" d="m95.332,528.76c-1.6596,0-3.2797-0.446-4.6982-1.293,0.3042-0.253,0.5903-0.517,0.8521-0.784,2.1435-2.188,3.0317-4.717,2.0214-5.758-0.2778-0.282-0.666-0.424-1.1538-0.424-1.2495,0-3.0107,0.974-4.4878,2.483-0.2695,0.271-0.5131,0.552-0.7431,0.83-0.7642-1.404-1.167-3.003-1.167-4.637,0-1.7,0.437-3.364,1.2656-4.825,0.2324,0.297,0.499,0.599,0.811,0.921,1.482,1.507,3.2456,2.481,4.4937,2.481,0.4849,0,0.8701-0.142,1.1445-0.421,1.0132-1.033,0.1275-3.562-2.0161-5.76-0.29-0.297-0.5767-0.562-0.8545-0.789,1.3838-0.783,2.9468-1.196,4.5322-1.196,1.5909,0,3.1563,0.414,4.5386,1.198-0.2812,0.239-0.5195,0.461-0.7412,0.692-2.1401,2.187-3.0249,4.713-2.0132,5.75,0.2749,0.283,0.6626,0.426,1.1509,0.426,1.2505,0,3.0134-0.977,4.4914-2.488,0.238-0.239,0.477-0.507,0.701-0.784,0.823,1.453,1.258,3.104,1.258,4.789,0,1.659-0.422,3.293-1.22,4.736-0.245-0.316-0.518-0.626-0.814-0.923-1.48-1.51-3.2416-2.485-4.4887-2.485-0.4878,0-0.8755,0.143-1.1508,0.426-1.0127,1.035-0.1265,3.561,2.017,5.751,0.2847,0.294,0.584,0.568,0.9107,0.834-1.4048,0.816-3.0049,1.247-4.6397,1.25z"/>
  <path id="path535" style="stroke-dasharray:none;" d="m95.332,509.71c1.5098,0,2.9961,0.377,4.3213,1.095-0.227,0.198-0.4257,0.387-0.6123,0.581-2.1889,2.237-3.0737,4.84-2.0146,5.926,0.2954,0.304,0.7246,0.464,1.2407,0.464,1.3018,0,3.0574-0.968,4.5794-2.524,0.2-0.201,0.401-0.422,0.593-0.651,0.755,1.394,1.153,2.965,1.153,4.567,0,1.575-0.385,3.126-1.114,4.51-0.218-0.268-0.454-0.531-0.706-0.784-1.525-1.557-3.2793-2.523-4.5777-2.523-0.5156,0-0.9443,0.16-1.2402,0.464-1.0605,1.084-0.1748,3.687,2.0161,5.924,0.2476,0.256,0.5049,0.496,0.7818,0.729-1.3477,0.747-2.8682,1.142-4.4205,1.144-1.5781,0-3.1201-0.409-4.4824-1.187,0.2573-0.22,0.5005-0.447,0.7256-0.678,2.1914-2.236,3.0796-4.842,2.0205-5.933-0.2973-0.302-0.727-0.461-1.2422-0.461-1.3008,0-3.0547,0.965-4.5757,2.519-0.2363,0.238-0.4502,0.48-0.6323,0.696-0.6977-1.346-1.0649-2.864-1.0649-4.414,0-1.616,0.3999-3.198,1.1596-4.601,0.2066,0.253,0.439,0.512,0.7037,0.785,1.5268,1.553,3.2822,2.518,4.582,2.518,0.5127,0,0.939-0.159,1.2334-0.458,1.0615-1.082,0.1758-3.688-2.0151-5.935-0.2447-0.251-0.4874-0.479-0.7242-0.681,1.3252-0.716,2.8081-1.092,4.312-1.092m0-0.25c-1.7299,0-3.3549,0.476-4.7534,1.304,0.3379,0.263,0.667,0.566,0.9864,0.894,2.0634,2.115,2.9687,4.614,2.0161,5.584-0.2559,0.26-0.6197,0.384-1.0552,0.384-1.1831,0-2.8955-0.909-4.4038-2.443-0.3384-0.349-0.6441-0.697-0.9155-1.058-0.8697,1.467-1.376,3.202-1.376,5.049,0,1.763,0.4619,3.436,1.2724,4.859,0.2613-0.322,0.5391-0.649,0.8521-0.965,1.5058-1.538,3.2134-2.445,4.3984-2.445,0.4385,0,0.8052,0.124,1.064,0.386,0.9473,0.976,0.0454,3.475-2.021,5.583-0.3149,0.323-0.6523,0.624-0.978,0.887,1.4326,0.893,3.1186,1.403,4.9135,1.403,1.774-0.003,3.4351-0.495,4.8585-1.359-0.355-0.281-0.7027-0.589-1.0401-0.937-2.064-2.109-2.9673-4.605-2.0171-5.577,0.2573-0.263,0.6235-0.388,1.0615-0.388,1.1831,0,2.8917,0.909,4.3997,2.447,0.34,0.343,0.647,0.698,0.919,1.062,0.841-1.454,1.329-3.149,1.329-4.962,0-1.831-0.499-3.545-1.367-5.01-0.237,0.304-0.512,0.621-0.806,0.917-1.509,1.544-3.2193,2.451-4.4024,2.451-0.4385,0-0.8052-0.125-1.0615-0.388-0.9488-0.973-0.0484-3.469,2.0141-5.577,0.2842-0.296,0.5738-0.554,0.8678-0.797-1.4015-0.831-3.0235-1.304-4.7555-1.304z"/>
  <path id="path544" style="stroke-dasharray:none;" d="m80.358,585.3c-0.3262-0.038-2.9033-1.535-2.6748-3.909,0.2705-3.039,3.0181-4.072,3.2519-4.072h2.5411l0.7983-14.11c-0.1074-0.206-8.6738-12.997-9.9951-15.137-0.832-1.343-1.8237-3.386-1.8237-5.492,0-4.455,3.5468-8.079,7.9067-8.079l4.6831,0.001v-2.139c0-1.227,0.9751-2.224,2.1738-2.224h15.396c1.199,0,2.174,0.997,2.174,2.224v2.139l4.683-0.001c4.359,0,7.907,3.624,7.907,8.079,0,2.102-0.991,4.147-1.822,5.492-1.323,2.14-9.782,14.587-9.867,14.712l0.667,14.535h2.6c0.328,0,2.835,1.317,3.099,4.284,0.237,2.468-2.31,3.672-2.532,3.698-0.087,0.001-2.243,0.002-4.977,0.002,0,0-24.092-0.001-24.19-0.003z"/>
  <path id="path546" style="stroke-dasharray:none;" d="m102.62,530.27c1.13,0,2.049,0.941,2.049,2.099v2.014,0.25h0.25l2.283-0.001h2.275c4.291,0,7.782,3.568,7.782,7.954,0,2.072-0.981,4.095-1.803,5.427-1.322,2.137-9.779,14.581-9.864,14.707l-0.048,0.069,0.005,0.083,0.683,14.34,0.011,0.238h0.239,2.474c0.223,0.023,2.716,1.203,2.98,4.171,0.224,2.321-2.21,3.531-2.398,3.56-0.123,0.003-3.783,0.003-4.986,0.003l-6.112-0.001h-4.0732-4.0103l-5.4858,0.001c-1.0845,0-4.3838,0-4.4805-0.001-0.3491-0.061-2.7964-1.506-2.5781-3.776,0.2598-2.92,2.8579-3.941,3.1274-3.957h2.4229,0.2363l0.0132-0.235,0.7915-13.993,0.0049-0.083-0.0469-0.07c-0.0859-0.129-8.6513-12.919-9.9717-15.057-0.8232-1.329-1.8046-3.35-1.8046-5.426,0-4.386,3.4907-7.954,7.7817-7.954h2.2744l2.2837,0.001h0.25v-0.25-2.014c0-1.158,0.9189-2.099,2.0488-2.099h15.396m0-0.25h-15.396c-1.2695,0-2.2988,1.052-2.2988,2.349v2.014c-1.2861,0-3.2773-0.001-4.5581-0.001-4.4351,0-8.0317,3.672-8.0317,8.204,0,1.985,0.8779,4.001,1.8422,5.558,1.3379,2.166,9.9766,15.064,9.9766,15.064l-0.7915,13.992h-2.4229c-0.3544,0-3.1025,1.107-3.3764,4.185-0.2368,2.462,2.4209,4.003,2.7964,4.046,0.0971,0.002,2.0298,0.003,4.5112,0.003,3.1606,0,7.2119-0.001,9.4961-0.001,2.2847,0,6.7022,0.001,10.185,0.001,2.735,0,4.893-0.001,4.992-0.003,0.374-0.043,2.879-1.371,2.641-3.834-0.274-3.077-2.869-4.397-3.223-4.397h-2.48l-0.684-14.339s8.531-12.551,9.87-14.717c0.962-1.557,1.841-3.573,1.841-5.558,0-4.532-3.597-8.204-8.032-8.204-1.281,0-3.273,0.001-4.558,0.001v-2.014c0-1.297-1.029-2.349-2.299-2.349z"/>
  <path id="path819" style="stroke-dasharray:none;" d="m68.213,665.65c0.0098-0.486,0.0732-2.265,0.4683-3.21,0.4555-1.087,1.8256-2.118,1.8393-2.128l48.864,0.025c-0.024,0.017,1.321,1.168,1.708,2.176,0.34,0.89,0.486,2.643,0.521,3.137h-53.4z"/>
  <path id="path821" style="stroke-dasharray:none;" d="m119.29,660.46c0.28,0.248,1.351,1.231,1.682,2.095,0.309,0.808,0.455,2.351,0.503,2.968h-53.137c0.0176-0.609,0.0977-2.179,0.4556-3.037,0.3867-0.921,1.4609-1.81,1.7349-2.026h48.762m0.093-0.25-48.94,0s-1.4053,1.047-1.8799,2.18c-0.4731,1.132-0.48,3.383-0.48,3.383h53.661s-0.13-2.239-0.538-3.307c-0.41-1.066-1.823-2.256-1.823-2.256z"/>
  <path id="path830" style="stroke-dasharray:none;" d="m70.828,659.31c-2.3042-3.045-3.499-7.38-3.1968-11.612,0.2789-3.921,2.8692-7.922,4.9502-11.136,0.272-0.42,0.5367-0.828,0.7876-1.223h43.605c1.834,2.767,4.911,8.112,5.226,13.228,0.251,4.063-0.795,7.578-3.196,10.743h-48.176z"/>
  <path id="path832" style="stroke-dasharray:none;" d="m116.91,635.47c1.831,2.772,4.857,8.058,5.168,13.111,0.248,4.011-0.778,7.483-3.133,10.61h-48.051c-2.2622-3.019-3.4331-7.299-3.1343-11.478,0.2764-3.889,2.857-7.874,4.9302-11.077,0.2588-0.4,0.5108-0.789,0.751-1.166h43.47m0.134-0.25-43.741,0c-2.2051,3.478-5.4746,7.99-5.7935,12.476-0.3203,4.483,1.0225,8.818,3.2593,11.745h48.3c2.236-2.927,3.531-6.459,3.259-10.875-0.281-4.547-2.74-9.52-5.284-13.346z"/>
  <path id="path841" style="stroke-dasharray:none;" d="m73.517,634.32c-0.2773-0.011-0.8071-0.33-1.1728-0.826-0.253-0.343-0.5181-0.89-0.3433-1.551,0.4082-1.664,1.8882-2.027,2.4238-2.027h41.882c0.536,0,2.017,0.363,2.423,2.025,0.176,0.662-0.088,1.209-0.341,1.552-0.367,0.496-0.896,0.816-1.178,0.827-0.144,0.002-3.006,0.002-6.73,0.002l-36.963-0.002z"/>
  <path id="path843" style="stroke-dasharray:none;" d="m116.31,630.04c0.509,0,1.914,0.346,2.302,1.934,0.163,0.613-0.085,1.123-0.321,1.444-0.363,0.492-0.862,0.767-1.075,0.776-0.127,0.001-2.334,0.002-6.747,0.002h-8.682l-6.4168-0.001-6.4194,0.001h-8.6822c-4.4125,0-6.6191-0.001-6.7397-0.002-0.2192-0.009-0.7173-0.283-1.0806-0.775-0.2368-0.321-0.4848-0.832-0.3217-1.45,0.3881-1.583,1.7929-1.929,2.3017-1.929h19.076,3.73,19.076m0-0.25h-19.076-3.73-19.076c-0.5571,0-2.1177,0.38-2.5444,2.12-0.3687,1.392,1.0503,2.511,1.6352,2.534,0.148,0.002,3.0181,0.002,6.7495,0.002,4.9703,0,11.468-0.001,15.102-0.001,3.6314,0,10.13,0.001,15.099,0.001,3.733,0,6.602,0,6.75-0.002,0.585-0.023,2.005-1.142,1.635-2.534-0.425-1.74-1.988-2.12-2.544-2.12z"/>
  <path id="path852" style="stroke-dasharray:none;" d="m74.968,628.97c0.6509-1.484,1.2871-2.888,1.9048-4.253,4.5034-9.949,8.0625-17.811,9.3608-38.354h17.364c1.233,19.454,5.011,27.486,9.385,36.783,0.871,1.852,1.771,3.765,2.676,5.824h-40.69z"/>
  <path id="path854" style="stroke-dasharray:none;" d="m103.48,586.49c1.243,19.393,5.019,27.422,9.39,36.711,0.846,1.799,1.719,3.655,2.598,5.646h-40.308c0.624-1.419,1.2344-2.766,1.8271-4.077,4.5005-9.941,8.0586-17.801,9.3648-38.28h17.128m0.235-0.25-17.598,0c-1.4741,23.532-5.8823,30.393-11.34,42.857h41.074c-5.458-12.464-10.66-19.325-12.136-42.857z"/>
  <path id="path863" style="stroke-dasharray:none;" d="m80.358,585.3c-0.3262-0.038-2.9033-1.535-2.6748-3.909,0.2705-3.039,3.0181-4.072,3.2519-4.072h2.5411l0.7983-14.11c-0.1074-0.206-8.6738-12.997-9.9951-15.137-0.832-1.343-1.8237-3.386-1.8237-5.492,0-4.455,3.5468-8.079,7.9067-8.079l4.6831,0.001v-2.139c0-1.227,0.9751-2.224,2.1738-2.224h15.396c1.199,0,2.174,0.997,2.174,2.224v2.139l4.683-0.001c4.359,0,7.907,3.624,7.907,8.079,0,2.102-0.991,4.147-1.822,5.492-1.323,2.14-9.782,14.587-9.867,14.712l0.667,14.535h2.6c0.328,0,2.835,1.317,3.099,4.284,0.237,2.468-2.31,3.672-2.532,3.698-0.087,0.001-2.243,0.002-4.977,0.002,0,0-24.092-0.001-24.19-0.003z"/>
  <path id="path865" style="stroke-dasharray:none;" d="m102.62,530.27c1.13,0,2.049,0.941,2.049,2.099v2.014,0.25h0.25l2.283-0.001h2.275c4.291,0,7.782,3.568,7.782,7.954,0,2.072-0.981,4.095-1.803,5.427-1.322,2.137-9.779,14.581-9.864,14.707l-0.048,0.069,0.005,0.083,0.683,14.34,0.011,0.238h0.239,2.474c0.223,0.023,2.716,1.203,2.98,4.171,0.224,2.321-2.21,3.531-2.398,3.56-0.123,0.003-3.783,0.003-4.986,0.003l-6.112-0.001h-4.0732-4.0103l-5.4858,0.001c-1.0845,0-4.3838,0-4.4805-0.001-0.3491-0.061-2.7964-1.506-2.5781-3.776,0.2598-2.92,2.8579-3.941,3.1274-3.957h2.4229,0.2363l0.0132-0.235,0.7915-13.993,0.0049-0.083-0.0469-0.07c-0.0859-0.129-8.6513-12.919-9.9717-15.057-0.8232-1.329-1.8046-3.35-1.8046-5.426,0-4.386,3.4907-7.954,7.7817-7.954h2.2744l2.2837,0.001h0.25v-0.25-2.014c0-1.158,0.9189-2.099,2.0488-2.099h15.396m0-0.25h-15.396c-1.2695,0-2.2988,1.052-2.2988,2.349v2.014c-1.2861,0-3.2773-0.001-4.5581-0.001-4.4351,0-8.0317,3.672-8.0317,8.204,0,1.985,0.8779,4.001,1.8422,5.558,1.3379,2.166,9.9766,15.064,9.9766,15.064l-0.7915,13.992h-2.4229c-0.3544,0-3.1025,1.107-3.3764,4.185-0.2368,2.462,2.4209,4.003,2.7964,4.046,0.0971,0.002,2.0298,0.003,4.5112,0.003,3.1606,0,7.2119-0.001,9.4961-0.001,2.2847,0,6.7022,0.001,10.185,0.001,2.735,0,4.893-0.001,4.992-0.003,0.374-0.043,2.879-1.371,2.641-3.834-0.274-3.077-2.869-4.397-3.223-4.397h-2.48l-0.684-14.339s8.531-12.551,9.87-14.717c0.962-1.557,1.841-3.573,1.841-5.558,0-4.532-3.597-8.204-8.032-8.204-1.281,0-3.273,0.001-4.558,0.001v-2.014c0-1.297-1.029-2.349-2.299-2.349z"/>
 </g>
 <g id="g6766" style="stroke-dasharray:none;" transform="translate(-11.857696,-509.39117)" stroke="#b0b0b0" stroke-miterlimit="0" stroke-width="0.14173229" class="white pawn" fill="url(#linearGradient7052)">
  <path id="path555" style="stroke-dasharray:none;" d="m13.467,665.67c0.0098-0.461,0.0693-2.08,0.4292-2.941,0.416-0.995,1.6694-1.944,1.6821-1.954l42.117,0.025c-0.0224,0.018,1.2022,1.074,1.5557,1.997,0.3086,0.811,0.4419,2.405,0.4756,2.873h-46.259z"/>
  <path id="path557" style="stroke-dasharray:none;" d="m57.604,660.93c0.2647,0.236,1.2295,1.131,1.5298,1.916,0.2783,0.732,0.4126,2.124,0.458,2.704h-45.996c0.0171-0.573,0.0923-1.992,0.416-2.768,0.3492-0.835,1.3189-1.645,1.5777-1.852h42.015m0.0938-0.25-42.194,0s-1.2881,0.968-1.7221,2.005c-0.4351,1.042-0.441,3.115-0.441,3.115h46.52s-0.1192-2.06-0.4927-3.042c-0.3755-0.982-1.6699-2.078-1.6699-2.078z"/>
  <path id="path566" style="stroke-dasharray:none;" d="m15.859,659.84c-2.1089-2.795-3.2012-6.779-2.9243-10.672,0.2558-3.607,2.6303-7.289,4.5385-10.247,0.2466-0.383,0.4869-0.755,0.7149-1.116h37.292c1.6806,2.545,4.4961,7.456,4.7861,12.163,0.229,3.736-0.728,6.966-2.9253,9.872h-41.482z"/>
  <path id="path568" style="stroke-dasharray:none;" d="m55.413,637.93c1.6772,2.55,4.4424,7.402,4.7285,12.045,0.2256,3.684-0.7109,6.871-2.8633,9.74h-41.357c-2.0669-2.77-3.1358-6.698-2.8618-10.538,0.2534-3.575,2.6181-7.242,4.5185-10.189,0.2339-0.362,0.4615-0.715,0.6787-1.058h37.156m0.1343-0.25-37.428,0c-2.021,3.2-5.0166,7.353-5.309,11.479-0.294,4.127,0.935,8.115,2.9868,10.806h41.606c2.0503-2.691,3.2373-5.942,2.9883-10.005-0.2578-4.182-2.5107-8.76-4.8437-12.28z"/>
  <path id="path577" style="stroke-dasharray:none;" d="m18.318,636.84c-0.251-0.01-0.7325-0.302-1.0659-0.754-0.2315-0.314-0.4742-0.815-0.314-1.42,0.373-1.524,1.7222-1.858,2.2109-1.858h35.727c0.4888,0,1.8384,0.334,2.2085,1.856,0.1606,0.608-0.0816,1.109-0.313,1.422-0.3335,0.453-0.8145,0.744-1.0684,0.754-0.1552,0.002-3.7036,0.003-7.9409,0.003,0,0-29.285-0.001-29.444-0.003z"/>
  <path id="path579" style="stroke-dasharray:none;" d="m54.876,632.94c0.4614,0,1.7358,0.317,2.0884,1.765,0.1474,0.557-0.0782,1.022-0.2935,1.314-0.3247,0.44-0.7817,0.695-0.9663,0.703-0.1372,0.002-2.8833,0.003-7.9424,0.003l-12.078-0.002-10.75,0.002c-4.1894,0-6.4766-0.001-6.6069-0.003-0.1919-0.008-0.649-0.263-0.9737-0.703-0.2153-0.292-0.4414-0.757-0.2929-1.318,0.3535-1.444,1.6279-1.761,2.0893-1.761h14.825,3.417,17.485m0-0.25h-17.485-3.417-14.825c-0.5093,0-1.9399,0.349-2.332,1.951-0.3384,1.281,0.9634,2.309,1.499,2.331,0.1587,0.002,3.0435,0.003,6.6167,0.003,3.5737,0,7.836-0.001,10.751-0.002,2.9141,0.001,7.8403,0.002,12.078,0.002,4.2383,0,7.7871-0.001,7.9458-0.003,0.5357-0.022,1.8369-1.05,1.4981-2.331-0.3897-1.602-1.8213-1.951-2.3301-1.951z"/>
  <path id="path588" style="stroke-dasharray:none;" d="m20.215,631.78c3.7481-8.93,8.0469-23.498,9.4165-31.934l0.0235-0.145-7.5283-0.003c-0.2403-0.036-3.7715-1.853-3.5416-4.938,0.2642-3.794,3.8179-5.18,4.1089-5.18h7.8086l0.0249-0.308-0.0766-0.037c-4.8482-2.356-7.9805-7.399-7.9805-12.848,0-7.847,6.3145-14.231,14.076-14.231,7.7607,0,14.074,6.384,14.074,14.231,0,5.449-3.1328,10.492-7.9814,12.848l-0.0777,0.037,0.0279,0.308h7.6933c0.3027,0,3.9956,1.386,4.2598,5.18,0.23,3.068-3.4404,4.9-3.7046,4.94l-7.4028,0.001,0.0234,0.145c1.4131,8.686,6.5884,24.12,10.698,31.934h-33.941z"/>
  <path id="path590" style="stroke-dasharray:none;" d="m36.546,562.28c7.6914,0,13.949,6.328,13.949,14.106,0,5.402-3.1055,10.401-7.9111,12.735l-0.1553,0.075,0.0156,0.172,0.0098,0.109,0.0205,0.227h0.2285,7.5733c0.371,0.031,3.8867,1.412,4.1406,5.065,0.2197,2.926-3.2984,4.744-3.5698,4.803-0.0518,0.002-0.6929,0.004-3.4532,0.004l-3.8125-0.001h-0.2939l0.0473,0.29c1.4034,8.629,6.5157,23.909,10.615,31.789h-33.547c3.7344-8.951,7.9903-23.399,9.3521-31.789l0.0473-0.29h-0.2939l-3.8345,0.001c-2.1479,0-3.0171-0.001-3.3398-0.001-0.1255,0-0.168,0-0.1714,0.001-0.291-0.062-3.6714-1.872-3.4522-4.808,0.254-3.648,3.6338-5.033,3.9839-5.064h7.6934,0.2305l0.0185-0.23,0.0088-0.108,0.0142-0.171-0.1538-0.074c-4.8052-2.334-7.9102-7.333-7.9102-12.735,0-7.778,6.2583-14.106,13.951-14.106m0-0.25c-7.8438,0-14.201,6.427-14.201,14.356,0,5.705,3.2847,10.644,8.0508,12.96l-0.0088,0.108h-7.6934c-0.3501,0-3.9633,1.419-4.2334,5.296-0.2314,3.102,3.2915,5.017,3.6617,5.072,0.083,0.003,1.5498,0.004,3.5512,0.004,1.1543,0,2.4868,0,3.8345-0.001-1.4053,8.656-5.7603,23.27-9.4814,32.079h34.337c-4.083-7.675-9.3736-23.418-10.782-32.079,1.3555,0.001,2.6763,0.001,3.8125,0.001,1.9698,0,3.3843-0.001,3.4619-0.004,0.3692-0.055,4.0435-1.97,3.8106-5.072-0.2695-3.877-4.0332-5.296-4.3843-5.296h-7.5791l-0.0098-0.108c4.7666-2.316,8.0518-7.255,8.0518-12.96,0-7.929-6.3594-14.356-14.199-14.356z"/>
  <path id="path874" style="stroke-dasharray:none;" d="m13.467,665.67c0.0098-0.461,0.0693-2.08,0.4292-2.941,0.416-0.995,1.6694-1.944,1.6821-1.954l42.117,0.025c-0.0224,0.018,1.2022,1.074,1.5557,1.997,0.3086,0.811,0.4419,2.405,0.4756,2.873h-46.259z"/>
  <path id="path876" style="stroke-dasharray:none;" d="m57.604,660.93c0.2647,0.236,1.2295,1.131,1.5298,1.916,0.2783,0.732,0.4126,2.124,0.458,2.704h-45.996c0.0171-0.573,0.0923-1.992,0.416-2.768,0.3492-0.835,1.3189-1.645,1.5777-1.852h42.015m0.0938-0.25-42.194,0s-1.2881,0.968-1.7221,2.005c-0.4351,1.042-0.441,3.115-0.441,3.115h46.52s-0.1192-2.06-0.4927-3.042c-0.3755-0.982-1.6699-2.078-1.6699-2.078z"/>
  <path id="path885" style="stroke-dasharray:none;" d="m15.859,659.84c-2.1089-2.795-3.2012-6.779-2.9243-10.672,0.2558-3.607,2.6303-7.289,4.5385-10.247,0.2466-0.383,0.4869-0.755,0.7149-1.116h37.292c1.6806,2.545,4.4961,7.456,4.7861,12.163,0.229,3.736-0.728,6.966-2.9253,9.872h-41.482z"/>
  <path id="path887" style="stroke-dasharray:none;" d="m55.413,637.93c1.6772,2.55,4.4424,7.402,4.7285,12.045,0.2256,3.684-0.7109,6.871-2.8633,9.74h-41.357c-2.0669-2.77-3.1358-6.698-2.8618-10.538,0.2534-3.575,2.6181-7.242,4.5185-10.189,0.2339-0.362,0.4615-0.715,0.6787-1.058h37.156m0.1343-0.25-37.428,0c-2.021,3.2-5.0166,7.353-5.309,11.479-0.294,4.127,0.935,8.115,2.9868,10.806h41.606c2.0503-2.691,3.2373-5.942,2.9883-10.005-0.2578-4.182-2.5107-8.76-4.8437-12.28z"/>
  <path id="path896" style="stroke-dasharray:none;" d="m18.318,636.84c-0.251-0.01-0.7325-0.302-1.0659-0.754-0.2315-0.314-0.4742-0.815-0.314-1.42,0.373-1.524,1.7222-1.858,2.2109-1.858h35.727c0.4888,0,1.8384,0.334,2.2085,1.856,0.1606,0.608-0.0816,1.109-0.313,1.422-0.3335,0.453-0.8145,0.744-1.0684,0.754-0.1552,0.002-3.7036,0.003-7.9409,0.003,0,0-29.285-0.001-29.444-0.003z"/>
  <path id="path898" style="stroke-dasharray:none;" d="m54.876,632.94c0.4614,0,1.7358,0.317,2.0884,1.765,0.1474,0.557-0.0782,1.022-0.2935,1.314-0.3247,0.44-0.7817,0.695-0.9663,0.703-0.1372,0.002-2.8833,0.003-7.9424,0.003l-12.078-0.002-10.75,0.002c-4.1894,0-6.4766-0.001-6.6069-0.003-0.1919-0.008-0.649-0.263-0.9737-0.703-0.2153-0.292-0.4414-0.757-0.2929-1.318,0.3535-1.444,1.6279-1.761,2.0893-1.761h14.825,3.417,17.485m0-0.25h-17.485-3.417-14.825c-0.5093,0-1.9399,0.349-2.332,1.951-0.3384,1.281,0.9634,2.309,1.499,2.331,0.1587,0.002,3.0435,0.003,6.6167,0.003,3.5737,0,7.836-0.001,10.751-0.002,2.9141,0.001,7.8403,0.002,12.078,0.002,4.2383,0,7.7871-0.001,7.9458-0.003,0.5357-0.022,1.8369-1.05,1.4981-2.331-0.3897-1.602-1.8213-1.951-2.3301-1.951z"/>
  <path id="path907" style="stroke-dasharray:none;" d="m20.215,631.78c3.7481-8.93,8.0469-23.498,9.4165-31.934l0.0235-0.145-7.5283-0.003c-0.2403-0.036-3.7715-1.853-3.5416-4.938,0.2642-3.794,3.8179-5.18,4.1089-5.18h7.8086l0.0249-0.308-0.0766-0.037c-4.8482-2.356-7.9805-7.399-7.9805-12.848,0-7.847,6.3145-14.231,14.076-14.231,7.7607,0,14.074,6.384,14.074,14.231,0,5.449-3.1328,10.492-7.9814,12.848l-0.0777,0.037,0.0279,0.308h7.6933c0.3027,0,3.9956,1.386,4.2598,5.18,0.23,3.068-3.4404,4.9-3.7046,4.94l-7.4028,0.001,0.0234,0.145c1.4131,8.686,6.5884,24.12,10.698,31.934h-33.941z"/>
  <path id="path909" style="stroke-dasharray:none;" d="m36.546,562.28c7.6914,0,13.949,6.328,13.949,14.106,0,5.402-3.1055,10.401-7.9111,12.735l-0.1553,0.075,0.0156,0.172,0.0098,0.109,0.0205,0.227h0.2285,7.5733c0.371,0.031,3.8867,1.412,4.1406,5.065,0.2197,2.926-3.2984,4.744-3.5698,4.803-0.0518,0.002-0.6929,0.004-3.4532,0.004l-3.8125-0.001h-0.2939l0.0473,0.29c1.4034,8.629,6.5157,23.909,10.615,31.789h-33.547c3.7344-8.951,7.9903-23.399,9.3521-31.789l0.0473-0.29h-0.2939l-3.8345,0.001c-2.1479,0-3.0171-0.001-3.3398-0.001-0.1255,0-0.168,0-0.1714,0.001-0.291-0.062-3.6714-1.872-3.4522-4.808,0.254-3.648,3.6338-5.033,3.9839-5.064h7.6934,0.2305l0.0185-0.23,0.0088-0.108,0.0142-0.171-0.1538-0.074c-4.8052-2.334-7.9102-7.333-7.9102-12.735,0-7.778,6.2583-14.106,13.951-14.106m0-0.25c-7.8438,0-14.201,6.427-14.201,14.356,0,5.705,3.2847,10.644,8.0508,12.96l-0.0088,0.108h-7.6934c-0.3501,0-3.9633,1.419-4.2334,5.296-0.2314,3.102,3.2915,5.017,3.6617,5.072,0.083,0.003,1.5498,0.004,3.5512,0.004,1.1543,0,2.4868,0,3.8345-0.001-1.4053,8.656-5.7603,23.27-9.4814,32.079h34.337c-4.083-7.675-9.3736-23.418-10.782-32.079,1.3555,0.001,2.6763,0.001,3.8125,0.001,1.9698,0,3.3843-0.001,3.4619-0.004,0.3692-0.055,4.0435-1.97,3.8106-5.072-0.2695-3.877-4.0332-5.296-4.3843-5.296h-7.5791l-0.0098-0.108c4.7666-2.316,8.0518-7.255,8.0518-12.96,0-7.929-6.3594-14.356-14.199-14.356z"/>
 </g>
 <g id="g6969" style="stroke-dasharray:none;" transform="matrix(-1,0,0,1,458.46066,-509.39117)" stroke="#b0b0b0" stroke-miterlimit="0" stroke-width="0.14173229" class="white bishop" fill="url(#linearGradient7044)">
  <g id="g6808" style="stroke-dasharray:none;" stroke="#b0b0b0" stroke-miterlimit="0" stroke-width="0.14173229" fill="url(#linearGradient7044)">
   <path id="path599" style="stroke-dasharray:none;" d="m218.12,625.09c3.866-7.828,8.981-19.189,9.41-28.366h16.1c0.435,9.251,6.123,21.152,9.592,28.366h-35.102z"/>
   <path id="path601" style="stroke-dasharray:none;" d="m243.52,596.85c0.474,9.183,6.046,20.907,9.511,28.116h-34.701c3.843-7.798,8.863-19.006,9.327-28.116h15.863m0.238-0.25-16.339,0c-0.39,9.191-5.547,20.642-9.492,28.616h35.501c-3.724-7.746-9.282-19.425-9.67-28.616z"/>
   <path id="path610" style="stroke-dasharray:none;" d="m226.19,579.64c-1.265,0-2.293-1.087-2.293-2.423,0-1.345,1.026-2.44,2.288-2.44h0.317l-0.231-0.216c-4.143-3.881-5.572-11.384-3.992-15.008,0.998-2.289,2.351-4.27,3.659-6.187,0.546-0.799,1.089-1.594,1.605-2.407l3.016,6.674c-0.004,0,0.276,1.304,1.458,1.303,0.433-0.012,0.697-0.137,0.831-0.37,0.267-0.464-0.111-1.17-0.127-1.2l-3.891-8.546c0.6-0.9,1.532-2.262,2.502-3.679,0.88-1.283,1.789-2.612,2.509-3.681l0.08-0.118-0.127-0.064c-1.284-0.652-1.935-1.981-1.935-3.949,0-2.487,1.408-4.032,3.674-4.032,2.421,0,4.111,1.658,4.111,4.032,0,1.798-0.804,3.237-2.206,3.949l-0.126,0.064,0.079,0.118c1.424,2.116,2.678,3.921,3.802,5.538,3.3,4.745,5.48,7.88,7.52,12.555,1.646,3.772,0.364,11.15-3.753,15.008l-0.231,0.216h0.317c1.261,0,2.288,1.095,2.288,2.44,0,1.336-1.028,2.423-2.291,2.423h-18.853z"/>
   <path id="path612" style="stroke-dasharray:none;" d="m235.53,533.42c2.347,0,3.986,1.606,3.986,3.907,0,1.749-0.779,3.148-2.138,3.838l-0.251,0.128,0.157,0.234c1.425,2.118,2.689,3.936,3.804,5.54,3.295,4.739,5.472,7.87,7.508,12.534,1.629,3.735,0.357,11.043-3.724,14.866l-0.462,0.433h0.633c1.192,0,2.163,1.039,2.163,2.315,0,1.267-0.972,2.298-2.166,2.298h-18.853c-1.196,0-2.168-1.031-2.168-2.298,0-1.276,0.97-2.315,2.163-2.315h0.633l-0.462-0.433c-4.107-3.847-5.526-11.278-3.963-14.866,0.994-2.278,2.344-4.255,3.649-6.166,0.492-0.722,1-1.465,1.482-2.216l2.91,6.439c0.11,0.501,0.571,1.401,1.583,1.401h0.048,0.004c0.432-0.013,0.73-0.159,0.888-0.433,0.295-0.515-0.082-1.241-0.118-1.306l-3.867-8.491c0.601-0.899,1.514-2.233,2.464-3.619,0.879-1.284,1.789-2.613,2.509-3.683l0.158-0.234-0.252-0.128c-1.239-0.63-1.867-1.921-1.867-3.838,0-2.447,1.327-3.907,3.549-3.907m0-0.25c-2.394,0-3.799,1.634-3.799,4.157,0,1.813,0.553,3.323,2.004,4.061-1.532,2.275-3.922,5.721-5.051,7.418l3.924,8.617s0.731,1.347-0.549,1.386h-0.045c-1.099,0-1.344-1.229-1.344-1.229l-3.112-6.887c-1.793,2.863-3.948,5.487-5.397,8.808-1.698,3.896-0.021,11.363,4.021,15.149-1.333,0-2.413,1.158-2.413,2.565,0,1.408,1.083,2.548,2.418,2.548h18.853c1.334,0,2.416-1.14,2.416-2.548,0-1.407-1.078-2.565-2.413-2.565,4.041-3.786,5.481-11.253,3.782-15.149-2.741-6.28-5.724-9.775-11.333-18.113,1.451-0.738,2.274-2.248,2.274-4.061,0-2.523-1.843-4.157-4.236-4.157z"/>
   <path id="path621" style="stroke-dasharray:none;" d="m211.75,665.67c0.008-0.519,0.06-2.518,0.398-3.578,0.389-1.205,1.545-2.346,1.556-2.357l42.754,0.036c0.2,0.229,1.175,1.38,1.475,2.404,0.293,0.999,0.415,2.971,0.443,3.495h-46.626z"/>
   <path id="path623" style="stroke-dasharray:none;" d="m256.4,659.9c0.258,0.299,1.136,1.367,1.413,2.314,0.268,0.917,0.392,2.673,0.431,3.335h-46.367c0.014-0.656,0.081-2.443,0.39-3.415,0.324-1.004,1.201-1.969,1.455-2.234h42.678m0.114-0.25-42.897,0s-1.184,1.158-1.588,2.408c-0.399,1.251-0.405,3.741-0.405,3.741h46.884s-0.109-2.475-0.455-3.655c-0.345-1.179-1.539-2.494-1.539-2.494z"/>
   <path id="path632" style="stroke-dasharray:none;" d="m213.96,658.66c-1.127-1.942-3.612-6.951-3.291-12.859,0.207-3.824,2.251-7.637,4.055-11.002,0.499-0.931,0.977-1.821,1.385-2.659h38.346c0.225,0.442,0.457,0.891,0.693,1.348,2.013,3.9,4.295,8.32,4.504,12.767,0.186,3.941-0.986,8.114-3.483,12.405h-42.209z"/>
   <path id="path634" style="stroke-dasharray:none;" d="m254.38,632.27c0.214,0.42,0.435,0.847,0.659,1.281,2.007,3.888,4.283,8.295,4.491,12.715,0.183,3.897-0.971,8.027-3.43,12.274h-42.066c-1.137-1.975-3.554-6.915-3.238-12.727,0.206-3.797,2.243-7.597,4.04-10.95,0.488-0.911,0.951-1.774,1.353-2.593h38.191m0.154-0.25-38.501,0c-1.865,3.844-5.218,8.823-5.487,13.779-0.269,4.958,1.454,9.758,3.344,12.991h42.353c1.89-3.233,3.766-7.654,3.536-12.536-0.236-5.024-3.098-10.006-5.245-14.234z"/>
   <path id="path643" style="stroke-dasharray:none;" d="m216.22,631.04c-0.196-0.011-0.683-0.297-1.074-0.804-0.303-0.392-0.631-1.022-0.475-1.795,0.356-1.888,1.942-2.296,2.315-2.296h36.931c0.423,0,2.072,0.38,2.422,2.237,0.151,0.751-0.183,1.381-0.489,1.778-0.424,0.548-0.962,0.868-1.172,0.88-0.112,0.002-2.476,0.002-5.616,0.002l-32.842-0.002z"/>
   <path id="path645" style="stroke-dasharray:none;" d="m253.91,626.27c0.401,0,1.965,0.362,2.299,2.138,0.142,0.704-0.174,1.3-0.465,1.676-0.409,0.529-0.92,0.822-1.069,0.831-0.072,0.001-1.103,0.002-5.614,0.002l-14.383-0.002-13.392,0.002c-4.063,0-5-0.001-5.06-0.001-0.152-0.009-0.612-0.269-0.988-0.756-0.287-0.372-0.598-0.967-0.451-1.698,0.339-1.802,1.839-2.192,2.192-2.192h16.122,3.151,17.658m0-0.25h-17.658-3.151-16.122c-0.469,0-2.075,0.472-2.437,2.396-0.311,1.539,1.176,2.721,1.67,2.749,0.116,0.002,2.232,0.002,5.074,0.002,4.266,0,10.165-0.001,13.392-0.002,3.223,0.001,9.676,0.002,14.383,0.002,3.138,0,5.5,0,5.617-0.002,0.494-0.028,2.087-1.266,1.776-2.806-0.361-1.923-2.075-2.339-2.544-2.339z"/>
   <path id="path654" style="stroke-dasharray:none;" d="m223.59,595.49c-0.274-0.03-2.451-1.254-2.258-3.192,0.227-2.485,2.551-3.329,2.749-3.329h2.193v-8.323h18.617v8.323h3.046c0.278,0,2.397,1.077,2.622,3.504,0.198,2.014-1.954,2.997-2.141,3.018-0.07,0.001-1.846,0.002-4.116,0.002l-20.712-0.003z"/>
   <path id="path656" style="stroke-dasharray:none;" d="m244.77,580.77,0,8.073,0,0.25,0.25,0,2.913-0.001c0.216,0.026,2.283,0.984,2.505,3.393,0.186,1.883-1.847,2.852-2.008,2.879-0.07,0.002-1.573,0.003-4.124,0.003-2.982,0-6.818-0.001-8.789-0.003-1.971,0.002-5.487,0.003-8.193,0.003-2.376,0-3.266-0.001-3.565-0.001h-0.137c-0.292-0.054-2.342-1.251-2.162-3.058,0.219-2.382,2.389-3.198,2.625-3.215h2.068,0.25v-0.25-8.073h18.367m0.25-0.25-18.867,0,0,8.323h-2.068c-0.302,0-2.642,0.91-2.873,3.442-0.202,2.026,2.059,3.294,2.379,3.329,0.081,0.002,1.672,0.003,3.733,0.003,2.706,0,6.222-0.001,8.193-0.003,1.97,0.002,5.807,0.003,8.789,0.003,2.272,0,4.048-0.001,4.13-0.003,0.319-0.035,2.451-1.128,2.252-3.154-0.235-2.532-2.444-3.617-2.747-3.617h-2.921v-8.323z"/>
   <path id="path918" style="stroke-dasharray:none;" d="m218.12,625.09c3.866-7.828,8.981-19.189,9.41-28.366h16.1c0.435,9.251,6.123,21.152,9.592,28.366h-35.102z"/>
   <path id="path920" style="stroke-dasharray:none;" d="m243.52,596.85c0.474,9.183,6.046,20.907,9.511,28.116h-34.701c3.843-7.798,8.863-19.006,9.327-28.116h15.863m0.238-0.25-16.339,0c-0.39,9.191-5.547,20.642-9.492,28.616h35.501c-3.724-7.746-9.282-19.425-9.67-28.616z"/>
   <path id="path929" style="stroke-dasharray:none;" d="m211.75,665.67c0.008-0.519,0.06-2.518,0.398-3.578,0.389-1.205,1.545-2.346,1.556-2.357l42.754,0.036c0.2,0.229,1.175,1.38,1.475,2.404,0.293,0.999,0.415,2.971,0.443,3.495h-46.626z"/>
   <path id="path931" style="stroke-dasharray:none;" d="m256.4,659.9c0.258,0.299,1.136,1.367,1.413,2.314,0.268,0.917,0.392,2.673,0.431,3.335h-46.367c0.014-0.656,0.081-2.443,0.39-3.415,0.324-1.004,1.201-1.969,1.455-2.234h42.678m0.114-0.25-42.897,0s-1.184,1.158-1.588,2.408c-0.399,1.251-0.405,3.741-0.405,3.741h46.884s-0.109-2.475-0.455-3.655c-0.345-1.179-1.539-2.494-1.539-2.494z"/>
   <path id="path940" style="stroke-dasharray:none;" d="m213.96,658.66c-1.127-1.942-3.612-6.951-3.291-12.859,0.207-3.824,2.251-7.637,4.055-11.002,0.499-0.931,0.977-1.821,1.385-2.659h38.346c0.225,0.442,0.457,0.891,0.693,1.348,2.013,3.9,4.295,8.32,4.504,12.767,0.186,3.941-0.986,8.114-3.483,12.405h-42.209z"/>
   <path id="path942" style="stroke-dasharray:none;" d="m254.38,632.27c0.214,0.42,0.435,0.847,0.659,1.281,2.007,3.888,4.283,8.295,4.491,12.715,0.183,3.897-0.971,8.027-3.43,12.274h-42.066c-1.137-1.975-3.554-6.915-3.238-12.727,0.206-3.797,2.243-7.597,4.04-10.95,0.488-0.911,0.951-1.774,1.353-2.593h38.191m0.154-0.25-38.501,0c-1.865,3.844-5.218,8.823-5.487,13.779-0.269,4.958,1.454,9.758,3.344,12.991h42.353c1.89-3.233,3.766-7.654,3.536-12.536-0.236-5.024-3.098-10.006-5.245-14.234z"/>
   <path id="path951" style="stroke-dasharray:none;" d="m216.22,631.04c-0.196-0.011-0.683-0.297-1.074-0.804-0.303-0.392-0.631-1.022-0.475-1.795,0.356-1.888,1.942-2.296,2.315-2.296h36.931c0.423,0,2.072,0.38,2.422,2.237,0.151,0.751-0.183,1.381-0.489,1.778-0.424,0.548-0.962,0.868-1.172,0.88-0.112,0.002-2.476,0.002-5.616,0.002l-32.842-0.002z"/>
   <path id="path953" style="stroke-dasharray:none;" d="m253.91,626.27c0.401,0,1.965,0.362,2.299,2.138,0.142,0.704-0.174,1.3-0.465,1.676-0.409,0.529-0.92,0.822-1.069,0.831-0.072,0.001-1.103,0.002-5.614,0.002l-14.383-0.002-13.392,0.002c-4.063,0-5-0.001-5.06-0.001-0.152-0.009-0.612-0.269-0.988-0.756-0.287-0.372-0.598-0.967-0.451-1.698,0.339-1.802,1.839-2.192,2.192-2.192h16.122,3.151,17.658m0-0.25h-17.658-3.151-16.122c-0.469,0-2.075,0.472-2.437,2.396-0.311,1.539,1.176,2.721,1.67,2.749,0.116,0.002,2.232,0.002,5.074,0.002,4.266,0,10.165-0.001,13.392-0.002,3.223,0.001,9.676,0.002,14.383,0.002,3.138,0,5.5,0,5.617-0.002,0.494-0.028,2.087-1.266,1.776-2.806-0.361-1.923-2.075-2.339-2.544-2.339z"/>
   <path id="path962" style="stroke-dasharray:none;" d="m223.59,595.49c-0.274-0.03-2.451-1.254-2.258-3.192,0.227-2.485,2.551-3.329,2.749-3.329h2.193v-8.323h18.617v8.323h3.046c0.278,0,2.397,1.077,2.622,3.504,0.198,2.014-1.954,2.997-2.141,3.018-0.07,0.001-1.846,0.002-4.116,0.002l-20.712-0.003z"/>
   <path id="path964" style="stroke-dasharray:none;" d="m244.77,580.77,0,8.073,0,0.25,0.25,0,2.913-0.001c0.216,0.026,2.283,0.984,2.505,3.393,0.186,1.883-1.847,2.852-2.008,2.879-0.07,0.002-1.573,0.003-4.124,0.003-2.982,0-6.818-0.001-8.789-0.003-1.971,0.002-5.487,0.003-8.193,0.003-2.376,0-3.266-0.001-3.565-0.001h-0.137c-0.292-0.054-2.342-1.251-2.162-3.058,0.219-2.382,2.389-3.198,2.625-3.215h2.068,0.25v-0.25-8.073h18.367m0.25-0.25-18.867,0,0,8.323h-2.068c-0.302,0-2.642,0.91-2.873,3.442-0.202,2.026,2.059,3.294,2.379,3.329,0.081,0.002,1.672,0.003,3.733,0.003,2.706,0,6.222-0.001,8.193-0.003,1.97,0.002,5.807,0.003,8.789,0.003,2.272,0,4.048-0.001,4.13-0.003,0.319-0.035,2.451-1.128,2.252-3.154-0.235-2.532-2.444-3.617-2.747-3.617h-2.921v-8.323z"/>
  </g>
 </g>
</svg>